<svg id="Layer_1" enable-background="new 0 0 512 512" height="512" viewBox="0 0 512 512" width="512"
    xmlns="http://www.w3.org/2000/svg">
    <g>
        <path
            d="m10 308c0 24.853 20.147 45 45 45h112.378c30.112 0 55.559-22.319 59.487-52.173l5.396-41.007c1.567-11.913 11.722-20.82 23.739-20.82 12.017 0 22.172 8.907 23.74 20.821l5.396 41.007c3.927 29.853 29.375 52.172 59.486 52.172h112.378c24.853 0 45-20.147 45-45v-149h-492z"
            fill="#f3eff0" />
        <path
            d="m151 309h-61c-22.091 0-40-17.909-40-40v-30c0-22.091 17.909-40 40-40h61c22.091 0 40 17.909 40 40v30c0 22.091-17.909 40-40 40z"
            fill="#ccf5fc" />
        <path
            d="m422 309h-61c-22.091 0-40-17.909-40-40v-30c0-22.091 17.909-40 40-40h61c22.091 0 40 17.909 40 40v30c0 22.091-17.909 40-40 40z"
            fill="#ff5a58" />
        <g>
            <circle cx="391.73" cy="159" r="10" />
            <path
                d="m509.07 151.93c-1.86-1.86-4.44-2.93-7.07-2.93h-65.27c-5.51 0-10 4.49-10 10 0 5.52 4.49 10 10 10h55.27v139c0 9.34-3.64 18.13-10.25 24.75-6.62 6.6-15.41 10.25-24.75 10.25h-112.38c-25 0-46.31-18.69-49.57-43.48l-5.4-41c-1.07-8.17-5.08-15.66-11.27-21.1-6.19-5.43-14.14-8.42-22.38-8.42s-16.19 2.99-22.38 8.42c-6.19 5.44-10.2 12.93-11.27 21.1l-5.4 41c-3.26 24.79-24.57 43.48-49.57 43.48h-112.38c-9.34 0-18.13-3.65-24.75-10.25-6.6-6.62-10.24-15.41-10.25-24.75v-139h326.73c5.51 0 10-4.49 10-10s-4.48-9.99-9.99-10c0 0 0 0-.01 0h-336.73c-2.63 0-5.21 1.07-7.07 2.93s-2.93 4.44-2.93 7.07v149c0 7.43 1.46 14.63 4.32 21.41 2.77 6.55 6.74 12.43 11.79 17.48s10.93 9.02 17.48 11.79c6.78 2.86 13.98 4.32 21.41 4.32h112.38c16.99 0 33.38-6.17 46.15-17.37 12.78-11.2 21.03-26.65 23.25-43.5l5.39-41c.91-6.92 6.85-12.13 13.82-12.13h.02c6.97 0 12.91 5.21 13.82 12.13l5.39 41c2.22 16.85 10.47 32.3 23.25 43.5 12.77 11.2 29.16 17.37 46.15 17.37h112.38c7.43 0 14.63-1.46 21.41-4.32 6.55-2.77 12.43-6.74 17.48-11.79s9.02-10.93 11.79-17.48c2.86-6.78 4.32-13.98 4.32-21.41v-149c0-2.63-1.07-5.21-2.93-7.07z" />
            <path
                d="m90 189c-27.57 0-50 22.43-50 50v30c0 27.57 22.43 50 50 50h61c27.57 0 50-22.43 50-50v-30c0-27.57-22.43-50-50-50zm91 50v30c0 16.542-13.458 30-30 30h-61c-16.542 0-30-13.458-30-30v-30c0-16.542 13.458-30 30-30h61c16.542 0 30 13.458 30 30z" />
            <path
                d="m311 239v30c0 27.57 22.43 50 50 50h61c27.57 0 50-22.43 50-50v-30c0-27.57-22.43-50-50-50h-61c-27.57 0-50 22.43-50 50zm20 0c0-16.542 13.458-30 30-30h61c16.542 0 30 13.458 30 30v30c0 16.542-13.458 30-30 30h-61c-16.542 0-30-13.458-30-30z" />
        </g>
    </g>
</svg>
