<svg id="Capa_1" enable-background="new 0 0 512 512" height="512" viewBox="0 0 512 512" width="512" xmlns="http://www.w3.org/2000/svg"><g><g><g><path d="m455.566 67.5c0-8.513-4.437-15.986-11.12-20.247 1.713-7.739-.433-16.16-6.453-22.18s-14.441-8.167-22.18-6.453c-4.261-6.683-11.733-11.12-20.247-11.12s-15.986 4.437-20.247 11.12c-7.739-1.713-16.16.433-22.18 6.453s-8.167 14.441-6.453 22.18c-6.684 4.261-11.12 11.733-11.12 20.247s4.437 15.986 11.12 20.247c-1.713 7.739.433 16.16 6.453 22.18s14.441 8.167 22.18 6.453c4.261 6.684 11.733 11.12 20.247 11.12s15.986-4.437 20.247-11.12c7.739 1.713 16.16-.433 22.18-6.453s8.167-14.441 6.453-22.18c6.683-4.261 11.12-11.734 11.12-20.247z" fill="#edf5fc"/></g></g><g><path d="m94.618 504.5c0-89.129 72.253-161.382 161.382-161.382s161.381 72.253 161.381 161.382z" fill="#e7889d"/></g><g><path d="m295.999 348.118c-12.792-3.262-26.193-5-40-5-89.129 0-161.381 72.253-161.381 161.382h80c0-75.321 51.602-138.587 121.381-156.382z" fill="#e16e7e"/></g><g><circle cx="421.198" cy="205.525" fill="#fae8cd" r="34.368"/></g><g><circle cx="90.802" cy="205.525" fill="#fae8cd" r="34.368"/></g><g><path d="m475.427 266.914c0-25.433-20.618-46.051-46.051-46.051v-24.986l-1.659-24.095c-11.728-84.349-84.14-149.282-171.717-149.282s-159.989 64.933-171.716 149.282l-1.659 24.095v24.986c-25.433 0-46.051 20.618-46.051 46.051 0 20.2 13.012 37.351 31.107 43.558-4.629 7.182-7.326 15.727-7.326 24.907 0 24.894 19.755 45.161 44.442 46.011-1.148 4.023-1.776 8.265-1.776 12.656 0 25.433 20.618 46.051 46.051 46.051 3.131 0 6.188-.316 9.144-.911 7.855 14.161 22.951 23.75 40.292 23.75 8.236 0 15.96-2.172 22.649-5.959 8.444 9.769 20.917 15.959 34.843 15.959s26.399-6.19 34.843-15.959c6.689 3.787 14.413 5.959 22.649 5.959 17.341 0 32.437-9.589 40.292-23.75 2.956.596 6.013.911 9.144.911 25.433 0 46.051-20.618 46.051-46.051 0-4.391-.628-8.633-1.776-12.656 24.687-.849 44.442-21.117 44.442-46.011 0-9.18-2.697-17.725-7.326-24.907 18.096-6.208 31.108-23.358 31.108-43.558z" fill="#f8fcff"/></g><g><g><path d="m236.757 360.327v-336.762c-78.754 8.697-141.617 70.133-152.473 148.217l-1.659 24.095v24.986c-25.433 0-46.051 20.618-46.051 46.051 0 20.2 13.012 37.351 31.107 43.558-4.629 7.182-7.326 15.727-7.326 24.907 0 24.894 19.755 45.161 44.442 46.011-1.148 4.023-1.776 8.265-1.776 12.656 0 25.433 20.618 46.051 46.051 46.051 3.131 0 6.188-.316 9.144-.911 7.855 14.161 22.951 23.75 40.292 23.75 8.236 0 15.96-2.172 22.649-5.959 8.444 9.769 20.917 15.959 34.843 15.959s26.399-6.19 34.843-15.959c1.564.886 3.19 1.674 4.86 2.376-35.11-19.068-58.946-56.263-58.946-99.026z" fill="#edf5fc"/></g></g><g><path d="m439.169 151.782c-9.037-37.598-29.566-71.742-58.973-97.546-34.347-30.138-78.454-46.736-124.196-46.736s-89.849 16.598-124.195 46.735c-29.407 25.804-49.937 59.948-58.973 97.546h366.337z" fill="#e7889d"/></g><g><path d="m186.542 21.21c.162-.211.324-.422.487-.632-20.053 7.887-38.761 19.212-55.224 33.657-29.407 25.804-49.937 59.948-58.973 97.546h366.338c-5.149-21.424-14.035-41.723-26.164-60h-191.468c-36.36.001-57.137-41.73-34.996-70.571z" fill="#e16e7e"/></g><g><path d="m125.17 151.782v91.137c0 26.923 21.825 48.748 48.748 48.748h164.163c26.923 0 48.748-21.825 48.748-48.748v-91.137z" fill="#fbf0dd"/></g><g><path d="m254.257 201.782h132.573v-50h-261.66v91.137c0 23.935 17.254 43.826 40 47.95 0-49.202 39.886-89.087 89.087-89.087z" fill="#fae8cd"/></g><g><g><g><ellipse cx="174.622" cy="245.037" fill="#e7889d" rx="28.919" ry="23.03"/></g><g><ellipse cx="337.376" cy="245.037" fill="#e7889d" rx="28.92" ry="23.03"/></g></g><g><path d="m205.242 227.477c-4.143 0-7.5-3.357-7.5-7.5 0-3.454-2.811-6.265-6.266-6.265-3.454 0-6.265 2.811-6.265 6.265 0 4.143-3.357 7.5-7.5 7.5s-7.5-3.357-7.5-7.5c0-11.726 9.539-21.265 21.265-21.265s21.266 9.539 21.266 21.265c0 4.142-3.357 7.5-7.5 7.5z"/></g><g><path d="m334.287 227.477c-4.143 0-7.5-3.357-7.5-7.5 0-3.454-2.811-6.265-6.266-6.265-3.454 0-6.265 2.811-6.265 6.265 0 4.143-3.357 7.5-7.5 7.5s-7.5-3.357-7.5-7.5c0-11.726 9.539-21.265 21.265-21.265s21.266 9.539 21.266 21.265c0 4.142-3.357 7.5-7.5 7.5z"/></g></g><g><path d="m286 311.667h-60c-11.046 0-20-8.954-20-20v-10c0-27.614 22.386-50 50-50 27.614 0 50 22.386 50 50v10c0 11.045-8.954 20-20 20z" fill="#fff"/></g><g><path d="m435.566 171.782h-359.134c-11.046 0-20-8.954-20-20 0-11.046 8.954-20 20-20h359.134c11.046 0 20 8.954 20 20 0 11.045-8.954 20-20 20z" fill="#f8fcff"/></g><g><path d="m156.432 151.782c0-11.046 8.954-20 20-20h-100c-11.046 0-20 8.954-20 20 0 11.046 8.954 20 20 20h100c-11.045 0-20-8.955-20-20z" fill="#edf5fc"/></g><path d="m482.927 266.914c0-18.398-9.331-34.654-23.504-44.298 2.393-5.343 3.644-11.143 3.644-17.09 0-11.81-4.92-22.667-13.031-30.373 7.814-4.856 13.031-13.514 13.031-23.372 0-14.212-10.837-25.94-24.681-27.356-.546-1.392-1.112-2.775-1.69-4.154 2.402-1.379 4.628-3.069 6.601-5.041 6.457-6.458 9.721-15.223 9.17-24.162 6.711-5.931 10.601-14.436 10.601-23.568s-3.89-17.638-10.601-23.568c.551-8.939-2.713-17.704-9.17-24.162-6.458-6.457-15.225-9.72-24.161-9.169-5.933-6.711-14.437-10.601-23.57-10.601s-17.638 3.89-23.568 10.601c-8.944-.554-17.703 2.712-24.163 9.171-.668.668-1.293 1.371-1.896 2.092-27.589-14.262-58.388-21.864-89.939-21.864-47.563 0-93.427 17.259-129.142 48.598-23.517 20.635-41.848 46.785-53.242 75.827-13.845 1.415-24.684 13.144-24.684 27.358 0 9.857 5.217 18.516 13.031 23.371-8.111 7.706-13.031 18.563-13.031 30.372 0 5.953 1.249 11.751 3.642 17.092-14.172 9.645-23.502 25.899-23.502 44.297 0 19.935 11.039 37.955 28.196 47.17-2.904 6.688-4.415 13.918-4.415 21.295 0 26.044 18.305 47.652 43.021 52.516-.236 2.041-.355 4.095-.355 6.15 0 12.079 4.024 23.234 10.796 32.203-12.566 24.015-19.199 50.966-19.199 78.252 0 4.143 3.357 7.5 7.5 7.5h322.763c4.143 0 7.5-3.357 7.5-7.5 0-27.276-6.638-54.235-19.203-78.246 6.775-8.97 10.801-20.127 10.801-32.209 0-2.058-.119-4.113-.356-6.156 8.445-1.673 16.325-5.36 23.142-10.876 3.22-2.605 3.718-7.327 1.112-10.548-2.604-3.22-7.326-3.721-10.548-1.112-6.548 5.298-14.461 8.251-22.885 8.542-2.306.079-4.447 1.216-5.806 3.082-1.357 1.866-1.781 4.253-1.147 6.472.987 3.459 1.488 7.024 1.488 10.597 0 21.258-17.294 38.552-38.552 38.552-2.571 0-5.149-.257-7.661-.764-3.203-.644-6.455.857-8.041 3.715-6.805 12.267-19.73 19.888-33.733 19.888-6.639 0-13.193-1.724-18.953-4.985-3.113-1.763-7.032-1.083-9.369 1.621-7.343 8.493-17.975 13.364-29.17 13.364s-21.827-4.871-29.17-13.364c-2.337-2.703-6.256-3.383-9.369-1.621-5.76 3.262-12.314 4.985-18.953 4.985-14.003 0-26.929-7.621-33.733-19.888-1.585-2.858-4.835-4.359-8.041-3.715-2.512.507-5.09.764-7.661.764-21.258 0-38.552-17.294-38.552-38.552 0-3.572.501-7.138 1.488-10.597.634-2.219.21-4.606-1.147-6.472-1.358-1.866-3.5-3.003-5.807-3.082-20.86-.719-37.2-17.636-37.2-38.516 0-7.414 2.119-14.622 6.13-20.845 1.248-1.938 1.537-4.343.781-6.521-.756-2.179-2.472-3.888-4.652-4.636-15.575-5.344-26.04-19.997-26.04-36.464 0-21.258 17.294-38.552 38.551-38.552 4.143 0 7.5-3.357 7.5-7.5v-24.728l1.161-16.854h26.385v63.638c0 31.016 25.232 56.248 56.248 56.248h25.63c3.274 11.528 13.889 20 26.452 20h60c12.563 0 23.178-8.472 26.452-20h25.63c31.016 0 56.248-25.232 56.248-56.248v-63.638h26.385l1.161 16.854v24.728c0 4.143 3.357 7.5 7.5 7.5 21.257 0 38.551 17.294 38.551 38.552 0 16.467-10.465 31.121-26.04 36.464-2.181.748-3.896 2.457-4.652 4.636-.756 2.178-.467 4.583.781 6.521 4.011 6.223 6.13 13.431 6.13 20.845 0 3.315-.42 6.604-1.249 9.775-1.047 4.007 1.354 8.104 5.361 9.152.636.166 1.272.245 1.9.245 3.33 0 6.37-2.234 7.252-5.606 1.151-4.408 1.735-8.973 1.735-13.566 0-7.377-1.511-14.607-4.415-21.295 17.159-9.216 28.198-27.236 28.198-47.171zm-328.473 180.413c9.943 14.372 26.38 23.108 44.054 23.108 7.251 0 14.431-1.481 21.062-4.318 9.862 9.16 22.847 14.318 36.431 14.318s26.568-5.158 36.431-14.318c6.631 2.837 13.811 4.318 21.062 4.318 17.674 0 34.11-8.736 44.054-23.108 1.788.179 3.586.27 5.382.27 11.78 0 22.678-3.832 31.53-10.304 9.021 18.586 14.228 38.96 15.241 59.707h-307.4c1.012-20.754 6.212-41.121 15.236-59.711 8.853 6.474 19.753 10.308 31.535 10.308 1.796 0 3.594-.091 5.382-.27zm219.244-421.385c3.079.684 6.251-.634 7.945-3.291 3.055-4.791 8.259-7.651 13.923-7.651 5.663 0 10.867 2.86 13.922 7.651 1.693 2.658 4.865 3.97 7.945 3.292 5.546-1.231 11.251.429 15.255 4.434 4.005 4.005 5.663 9.707 4.436 15.255-.682 3.077.634 6.251 3.291 7.945 4.791 3.055 7.651 8.259 7.651 13.923s-2.86 10.868-7.651 13.923c-2.657 1.694-3.973 4.868-3.291 7.945 1.228 5.548-.431 11.25-4.436 15.255-.724.724-1.514 1.375-2.353 1.95-11.249-21.907-26.604-41.662-45.194-57.975-8.094-7.102-16.713-13.472-25.75-19.091 3.93-3.365 9.184-4.698 14.307-3.565zm-297.265 113.339h101.279c4.143 0 7.5-3.357 7.5-7.5s-3.357-7.5-7.5-7.5h-87.821c10.615-24.572 26.669-46.69 46.86-64.408 32.978-28.936 75.328-44.873 119.249-44.873s86.271 15.937 119.249 44.873c20.193 17.72 36.247 39.836 46.861 64.408h-216.11c-4.143 0-7.5 3.357-7.5 7.5s3.357 7.5 7.5 7.5h229.566c6.893 0 12.5 5.608 12.5 12.501 0 6.892-5.607 12.499-12.5 12.499h-359.133c-6.893 0-12.5-5.607-12.5-12.5s5.607-12.5 12.5-12.5zm-1.309 56.596v18.009c-3.115.438-6.141 1.153-9.061 2.104-1.392-3.287-2.13-6.827-2.13-10.465 0-9.237 4.683-17.572 12.053-22.436l-.845 12.272c-.011.172-.017.344-.017.516zm223.376 95.79c0 6.893-5.607 12.5-12.5 12.5h-60c-6.893 0-12.5-5.607-12.5-12.5v-10c0-23.435 19.065-42.5 42.5-42.5s42.5 19.065 42.5 42.5zm80.83-48.748c0 22.744-18.504 41.248-41.248 41.248h-24.582v-2.5c0-31.706-25.794-57.5-57.5-57.5s-57.5 25.794-57.5 57.5v2.5h-24.582c-22.744 0-41.248-18.504-41.248-41.248v-63.638h246.66zm57.528-47.558-.845-12.272c7.37 4.864 12.053 13.198 12.053 22.436 0 3.635-.739 7.177-2.131 10.464-2.919-.952-5.945-1.666-9.059-2.104v-18.009c0-.171-.006-.343-.018-.515z"/></g></svg>