<?xml version="1.0" encoding="iso-8859-1"?>
<!-- Generator: Adobe Illustrator 19.0.0, SVG Export Plug-In . SVG Version: 6.00 Build 0)  -->
<svg version="1.1" id="Capa_1" xmlns="http://www.w3.org/2000/svg" x="0px" y="0px" viewBox="0 0 512 512" style="enable-background:new 0 0 512 512;" xml:space="preserve">
<polygon style="fill:#FFFFFF;" points="9.999,221.054 256.03,501.974 502.001,221.054 "/>
<g>
	<polygon style="fill:#78D2FA;" points="9.999,221.054 256.03,501.974 502.001,221.054 	"/>
	<polygon style="fill:#78D2FA;" points="92.378,96.03 10.011,221.054 502.001,221.054 420.011,96.03 	"/>
</g>
<polygon style="fill:#FFFFFF;" points="174.039,221.054 256.03,96.03 338.02,221.054 "/>
<g>
	<polygon style="fill:#C8F5FF;" points="338.02,221.054 420.011,96.03 502.001,221.054 	"/>
	<polygon style="fill:#C8F5FF;" points="10.388,221.054 92.377,96.03 174.368,221.054 	"/>
	<polygon style="fill:#C8F5FF;" points="338.02,221.054 174.039,221.054 256.03,500.974 	"/>
</g>
<g>
	<path style="fill:#7D9BFF;" d="M100.412,393.793L100.412,393.793c0-31.357-25.42-56.777-56.777-56.777l0,0
		c31.357,0,56.777-25.42,56.777-56.777l0,0c0,31.357,25.42,56.777,56.777,56.777l0,0
		C125.833,337.016,100.412,362.437,100.412,393.793z"/>
	<path style="fill:#7D9BFF;" d="M462.005,90.017L462.005,90.017c0-22.089-17.907-39.996-39.996-39.996l0,0
		c22.089,0,39.996-17.907,39.996-39.996l0,0c0,22.089,17.907,39.996,39.996,39.996l0,0
		C479.912,50.022,462.005,67.929,462.005,90.017z"/>
</g>
<path d="M428.372,90.546c-1.849-2.818-4.991-4.516-8.361-4.516H92.378c-3.363,0-6.5,1.69-8.35,4.499L1.906,215.181
	c-0.391,0.539-0.73,1.121-1.013,1.743c-1.621,3.574-1.001,7.765,1.585,10.717l41.625,47.527c3.639,4.155,9.955,4.573,14.11,0.935
	c4.154-3.639,4.572-9.956,0.934-14.109l-27.097-30.941h134.501L234.137,461.8l-76.375-87.205c-3.638-4.155-9.956-4.573-14.109-0.935
	c-4.154,3.639-4.572,9.956-0.934,14.11l105.79,120.791c1.898,2.168,4.641,3.412,7.522,3.412c2.882,0,5.623-1.244,7.521-3.413
	l112.63-128.632c3.639-4.155,3.22-10.472-0.936-14.109c-4.156-3.639-10.473-3.22-14.109,0.936l-83.21,95.033l67.584-230.735h134.445
	l-62.183,71.02c-3.639,4.155-3.22,10.472,0.936,14.109c1.897,1.662,4.245,2.477,6.583,2.477c2.782,0,5.55-1.155,7.526-3.413
	l76.706-87.605c2.959-3.379,3.302-8.315,0.839-12.07L428.372,90.546z M483.486,211.055H356.535l63.476-96.792L483.486,211.055z
	 M174.203,202.57l-63.311-96.541h126.623L174.203,202.57z M256.03,114.263l63.475,96.792H192.555L256.03,114.263z M274.545,106.029
	h126.952l-63.476,96.792L274.545,106.029z M92.358,114.234l63.495,96.821H28.573L92.358,114.234z M256.03,465.403l-68.642-234.35
	h137.285L256.03,465.403z"/>
<path d="M167.188,337.016c0-5.522-4.478-9.999-9.999-9.999c-25.793,0-46.778-20.985-46.778-46.778c0-5.522-4.478-9.999-9.999-9.999
	s-9.999,4.477-9.999,9.999c0,25.793-20.985,46.778-46.778,46.778c-5.521,0-9.999,4.477-9.999,9.999s4.478,9.999,9.999,9.999
	c25.793,0,46.778,20.985,46.778,46.778c0,5.522,4.478,9.999,9.999,9.999s9.999-4.477,9.999-9.999
	c0-25.793,20.985-46.778,46.778-46.778C162.712,347.015,167.188,342.539,167.188,337.016z M100.412,358.677
	c-5.451-8.782-12.879-16.209-21.66-21.661c8.781-5.451,16.208-12.878,21.66-21.661c5.451,8.782,12.879,16.209,21.66,21.661
	C113.291,342.468,105.864,349.894,100.412,358.677z"/>
<path d="M422.009,60.021c16.54,0,29.997,13.457,29.997,29.997c0,5.522,4.478,9.999,9.999,9.999s9.999-4.477,9.999-9.999
	c0-16.54,13.457-29.997,29.997-29.997c5.521,0,9.999-4.477,9.999-9.999s-4.478-9.999-9.999-9.999
	c-16.54,0-29.997-13.457-29.997-29.997c0-5.522-4.478-9.999-9.999-9.999s-9.999,4.477-9.999,9.999
	c0,16.54-13.457,29.997-29.997,29.997c-5.521,0-9.999,4.477-9.999,9.999S416.488,60.021,422.009,60.021z M462.005,39.992
	c2.853,3.798,6.232,7.177,10.03,10.03c-3.798,2.853-7.178,6.232-10.03,10.03c-2.853-3.798-6.232-7.177-10.03-10.03
	C455.773,47.169,459.152,43.789,462.005,39.992z"/>
<path d="M395.715,332.442c-2.631,0-5.199,1.06-7.069,2.93c-1.86,1.86-2.93,4.44-2.93,7.069s1.069,5.209,2.93,7.069
	c1.86,1.86,4.439,2.93,7.069,2.93c2.63,0,5.209-1.07,7.068-2.93c1.86-1.86,2.931-4.44,2.931-7.069s-1.07-5.209-2.931-7.069
	C400.925,333.502,398.345,332.442,395.715,332.442z"/>
<g>
</g>
<g>
</g>
<g>
</g>
<g>
</g>
<g>
</g>
<g>
</g>
<g>
</g>
<g>
</g>
<g>
</g>
<g>
</g>
<g>
</g>
<g>
</g>
<g>
</g>
<g>
</g>
<g>
</g>
</svg>
