<?xml version="1.0" encoding="iso-8859-1"?>
<!-- Generator: Adobe Illustrator 19.0.0, SVG Export Plug-In . SVG Version: 6.00 Build 0)  -->
<svg version="1.1" id="Capa_1" xmlns="http://www.w3.org/2000/svg" x="0px" y="0px" viewBox="0 0 512 512" style="enable-background:new 0 0 512 512;" xml:space="preserve">
<g>
	<g>
		<path d="M510.362,215.571l-81.99-125.025c-1.849-2.818-4.991-4.516-8.361-4.516H92.378c-3.363,0-6.5,1.69-8.35,4.499
			L1.906,215.181c-0.391,0.539-0.73,1.121-1.013,1.743c-1.621,3.574-1.001,7.765,1.585,10.717l41.625,47.527
			c3.639,4.155,9.955,4.573,14.109,0.935c4.154-3.639,4.572-9.956,0.934-14.109l-27.097-30.941h134.501L234.137,461.8
			l-76.375-87.205c-3.638-4.155-9.956-4.573-14.109-0.935c-4.154,3.639-4.572,9.956-0.934,14.109l105.79,120.791
			c1.898,2.168,4.641,3.412,7.522,3.412c2.882,0,5.623-1.244,7.521-3.413l112.63-128.632c3.639-4.155,3.22-10.472-0.936-14.109
			c-4.156-3.639-10.473-3.22-14.109,0.936l-83.21,95.033l67.584-230.735h134.445l-62.183,71.02
			c-3.639,4.155-3.22,10.472,0.936,14.109c1.897,1.662,4.245,2.477,6.583,2.477c2.782,0,5.55-1.155,7.526-3.413l76.706-87.605
			C512.482,224.262,512.825,219.326,510.362,215.571z M28.573,211.055l63.785-96.821l63.495,96.821H28.573z M110.892,106.029
			h126.623l-63.311,96.541L110.892,106.029z M256.03,114.263l63.475,96.792H192.555L256.03,114.263z M256.03,465.403l-68.642-234.35
			h137.284L256.03,465.403z M338.02,202.821l-63.475-96.792h126.952L338.02,202.821z M356.535,211.055l63.476-96.792l63.474,96.792
			H356.535z"/>
	</g>
</g>
<g>
	<g>
		<path d="M157.189,327.017c-25.793,0-46.778-20.985-46.778-46.778c0-5.522-4.477-9.999-9.999-9.999s-9.999,4.477-9.999,9.999
			c0,25.793-20.985,46.778-46.778,46.778c-5.521,0-9.999,4.477-9.999,9.999c0,5.522,4.478,9.999,9.999,9.999
			c25.793,0,46.778,20.985,46.778,46.778c0,5.522,4.478,9.999,9.999,9.999s9.999-4.477,9.999-9.999
			c0-25.793,20.985-46.778,46.778-46.778c5.522,0,9.999-4.477,9.999-9.999C167.188,331.494,162.711,327.017,157.189,327.017z
			 M100.412,358.677c-5.451-8.782-12.879-16.209-21.66-21.661c8.781-5.451,16.208-12.878,21.66-21.661
			c5.451,8.782,12.879,16.209,21.66,21.661C113.291,342.468,105.864,349.894,100.412,358.677z"/>
	</g>
</g>
<g>
	<g>
		<path d="M502.001,40.023c-16.54,0-29.997-13.457-29.997-29.997c0-5.522-4.478-9.999-9.999-9.999s-9.999,4.477-9.999,9.999
			c0,16.54-13.457,29.997-29.997,29.997c-5.521,0-9.999,4.477-9.999,9.999s4.478,9.999,9.999,9.999
			c16.54,0,29.997,13.457,29.997,29.997c0,5.522,4.478,9.999,9.999,9.999s9.999-4.477,9.999-9.999
			c0-16.54,13.457-29.997,29.997-29.997c5.521,0,9.999-4.477,9.999-9.999S507.522,40.023,502.001,40.023z M462.005,60.052
			c-2.853-3.798-6.232-7.177-10.03-10.03c3.798-2.853,7.177-6.232,10.03-10.03c2.853,3.798,6.232,7.177,10.03,10.03
			C468.237,52.874,464.857,56.254,462.005,60.052z"/>
	</g>
</g>
<g>
	<g>
		<path d="M402.783,335.371c-1.859-1.87-4.439-2.93-7.068-2.93c-2.631,0-5.199,1.06-7.069,2.93c-1.86,1.86-2.93,4.44-2.93,7.069
			s1.069,5.209,2.93,7.069c1.86,1.86,4.438,2.93,7.069,2.93c2.63,0,5.209-1.07,7.068-2.93c1.86-1.86,2.931-4.44,2.931-7.069
			S404.644,337.231,402.783,335.371z"/>
	</g>
</g>
<g>
</g>
<g>
</g>
<g>
</g>
<g>
</g>
<g>
</g>
<g>
</g>
<g>
</g>
<g>
</g>
<g>
</g>
<g>
</g>
<g>
</g>
<g>
</g>
<g>
</g>
<g>
</g>
<g>
</g>
</svg>
