<?xml version="1.0"?>
<svg xmlns="http://www.w3.org/2000/svg" version="1.1" id="Capa_1" x="0px" y="0px" viewBox="0 0 512 512" style="enable-background:new 0 0 512 512;" xml:space="preserve"
    width="512px" height="512px" class="hovered-paths"><g transform="matrix(1, -1.22465e-16, -1.22465e-16, -1, 0, 512)"><path style="fill:#FFBFAB;" d="M426,322c16.57,0,30,13.43,30,30c0,16.56-13.44,30-30,30h-13l-0.19,0.79  C426.1,385.86,436,397.77,436,412c0,16.56-13.44,30-30,30h-20c16.57,0,30,13.43,30,30s-13.43,30-30,30c-11.923,0-96.17,0-107.54,0  c-54.77,0-69.33-6.72-122.46-20V282c1.058-0.829,160-29.878,160-126v-10c0-16.57,13.43-30,30-30c16.55,0,29.97,13.4,30,29.95  c0.2,0,6.46,63.13-20,116.05h90c16.57,0,30,13.43,30,30c0,16.56-13.44,30-30,30H426z" data-original="#FFBFAB" class=""/><path style="fill:#E87B7B" d="M156,282v200c0,11.05-8.95,20-20,20H36V262h100C147.05,262,156,270.95,156,282z" data-original="#7BD8E8" class="" data-old_color="#7BD8E8"/><path d="M356,56V10c0-5.522-4.478-10-10-10s-10,4.478-10,10v46c0,5.522,4.478,10,10,10S356,61.522,356,56z" data-original="#000000" class="hovered-path active-path" style="fill:#000000"/><path d="M116,312c-5.52,0-10,4.48-10,10s4.48,10,10,10s10-4.48,10-10S121.52,312,116,312z" data-original="#000000" class="hovered-path active-path" style="fill:#000000"/><path d="M446,252h-74.652c11.557-29.603,16.235-64.447,15.333-95.464c-0.172-5.919-0.399-9.342-0.706-11.497  C385.458,123.432,367.716,106,346,106c-22.056,0-40,17.944-40,40v10c0,63.246-81.214,98.781-142.504,114.019  C158.862,259.425,148.284,252,136,252H36c-5.522,0-10,4.478-10,10v240c0,5.522,4.478,10,10,10h100  c12.202,0,22.719-7.327,27.401-17.809c5.075,1.302,9.786,2.532,14.135,3.668C212.451,506.978,231.684,512,278.46,512H386  c22.056,0,40-17.944,40-40c0-8.224-2.497-15.874-6.77-22.238C434.678,444.359,446,429.599,446,412  c0-8.194-2.436-15.869-6.696-22.262C454.684,384.326,466,369.6,466,352c0-8.224-2.497-15.874-6.77-22.238  C474.678,324.359,486,309.599,486,292C486,269.944,468.056,252,446,252z M146,482c0,5.514-4.486,10-10,10H46V272h90  c5.514,0,10,4.486,10,10V482z M446,312c-21.449,0-26.562,0-50,0c-5.522,0-10,4.478-10,10s4.478,10,10,10h30c11.028,0,20,8.972,20,20  c0,11.046-8.954,20-20,20h-50c-5.522,0-10,4.478-10,10s4.478,10,10,10h30c10.897,0,20,8.705,20,20c0,11.046-8.954,20-20,20  c-21.449,0-26.562,0-50,0c-5.522,0-10,4.478-10,10s4.478,10,10,10h30c11.028,0,20,8.972,20,20s-8.972,20-20,20H278.46  c-44.207,0-61.473-4.509-95.87-13.492c-5.039-1.316-10.566-2.759-16.59-4.295V290.025C238.368,272.787,326,230.711,326,156v-10  c0-11.028,8.972-20,20-20c11.008,0,19.979,8.958,20,19.969V146c0,4.346,5.424,57.683-16.326,106H316c-5.522,0-10,4.478-10,10  s4.478,10,10,10c6.983,0,118.602,0,130,0c11.028,0,20,8.972,20,20C466,303.046,457.046,312,446,312z" data-original="#000000" class="hovered-path active-path" style="fill:#000000"/><path d="M116,352c-5.522,0-10,4.478-10,10v80c0,5.522,4.478,10,10,10s10-4.478,10-10v-80C126,356.478,121.522,352,116,352z" data-original="#000000" class="hovered-path active-path" style="fill:#000000"/><path d="M216,136c0,5.522,4.478,10,10,10h40c5.522,0,10-4.478,10-10s-4.478-10-10-10h-40C220.478,126,216,130.478,216,136z" data-original="#000000" class="hovered-path active-path" style="fill:#000000"/><path d="M416,136c0,5.522,4.478,10,10,10h40c5.522,0,10-4.478,10-10s-4.478-10-10-10h-40C420.478,126,416,130.478,416,136z" data-original="#000000" class="hovered-path active-path" style="fill:#000000"/><path d="M423.778,44.079l-28.279,28.279c-3.905,3.905-3.905,10.237,0,14.143c3.907,3.905,10.236,3.904,14.143,0l28.279-28.279  c3.905-3.905,3.905-10.237,0-14.143C434.015,40.175,427.685,40.175,423.778,44.079z" data-original="#000000" class="hovered-path active-path" style="fill:#000000"/><path d="M296.501,86.501c3.905-3.905,3.905-10.237,0-14.143l-28.279-28.279c-3.906-3.904-10.236-3.904-14.143,0  c-3.905,3.905-3.905,10.237,0,14.143l28.279,28.279C286.266,90.406,292.595,90.405,296.501,86.501z" data-original="#000000" class="hovered-path active-path" style="fill:#000000"/></g> </svg>
