<svg width="700" height="191" xmlns="http://www.w3.org/2000/svg">
 <!-- Created with Method Draw - http://github.com/duopixel/Method-Draw/ -->

 <g>
  <title>background</title>
  <rect fill="none" id="canvas_background" height="193" width="702" y="-1" x="-1"/>
  <g display="none" overflow="visible" y="0" x="0" height="100%" width="100%" id="canvasGrid">
   <rect fill="url(#gridpattern)" stroke-width="0" y="0" x="0" height="100%" width="100%"/>
  </g>
 </g>
 <g>
  <title>Layer 1</title>
  <g stroke="null" id="svg_5">
   <path fill="#ff0000" stroke="null" id="svg_4" d="m94.95239,188.18568c-51.38625,0 -93.21768,-41.83144 -93.21768,-93.21768s41.83144,-93.21768 93.21768,-93.21768s93.21768,41.83144 93.21768,93.21768s-41.83144,93.21768 -93.21768,93.21768zm0,-177.02815c-46.22044,0 -83.81047,37.59003 -83.81047,83.81047s37.59003,83.81823 83.81047,83.81823s83.81823,-37.5978 83.81823,-83.81823s-37.5978,-83.81047 -83.81823,-83.81047zm-55.23148,134.54419c13.64085,14.91483 33.35639,24.18222 55.23148,24.18222c11.17835,0 21.75856,-2.43143 31.2823,-6.80489l-52.02324,-51.89118l-34.49054,34.51385zm110.99119,-0.52047c11.9707,-13.28352 19.29606,-30.99488 19.29606,-50.2288c0,-30.17923 -17.76574,-56.04713 -43.25301,-68.04891l-47.30021,47.19922l71.18724,71.07848l0.06991,0zm-76.72592,-65.47766l-39.41554,39.26795l-5.27457,-5.28234l41.45857,-41.4508l48.39551,-48.35667c-7.59724,-2.54795 -15.69164,-3.95398 -24.19776,-3.95398c-41.45857,-0.0233 -75.06354,33.58167 -75.06354,75.04024c0,16.8724 5.53868,32.45529 15.06242,45.06298l39.27572,-39.26795l2.78876,2.55572l56.28018,56.28018c1.16522,-0.63699 2.21392,-1.27398 3.26262,-2.06633l-62.34709,-62.1762l-37.70655,37.71432l-5.27457,-5.27457l42.99666,-42.99666l2.78876,2.57125l65.71847,65.5398c1.0487,-0.77681 1.98088,-1.67015 2.91305,-2.45473l-70.96973,-70.81437l-0.64476,0.11652l-0.04661,-0.05438zm23.66952,7.98565l-5.2668,-5.25126l37.19386,-37.20939l5.27457,5.35225l-37.20162,37.17055l0,-0.06215zm35.28289,-51.09883l-42.88013,42.88013l-5.28234,-5.27457l42.8879,-42.88013l5.27457,5.31341l0,-0.03884z"/>
  </g>
  <text xml:space="preserve" text-anchor="start" font-family="Helvetica, Arial, sans-serif" font-size="147" id="svg_6" y="142.8405" x="203.28701" stroke-width="0" stroke="#000" fill="#000000">TRAKT</text>
 </g>
</svg>