<?xml version="1.0" encoding="iso-8859-1"?>
<!-- Generator: Adobe Illustrator 19.0.0, SVG Export Plug-In . SVG Version: 6.00 Build 0)  -->
<svg version="1.1" id="Capa_1" xmlns="http://www.w3.org/2000/svg" x="0px" y="0px" viewBox="0 0 512 512" style="enable-background:new 0 0 512 512;" xml:space="preserve">
<g>
	<g>
		<path d="M198.001,47.942c-82.715,0-150.008,67.294-150.008,150.008s67.294,150.008,150.008,150.008
			s150.008-67.294,150.008-150.008S280.716,47.942,198.001,47.942z M198.001,327.958c-71.686,0-130.007-58.32-130.007-130.007
			S126.315,67.943,198.001,67.943s130.007,58.32,130.007,130.007S269.687,327.958,198.001,327.958z"/>
	</g>
</g>
<g>
	<g>
		<path d="M72.973,324.663l-0.844-0.84c-3.905-3.904-10.238-3.904-14.144,0c-3.905,3.905-3.905,10.238,0,14.144l0.928,0.922
			c1.949,1.926,4.49,2.888,7.029,2.888c2.579,0,5.156-0.991,7.112-2.97C76.938,334.879,76.901,328.547,72.973,324.663z"/>
	</g>
</g>
<g>
	<g>
		<path d="M500.084,442.402L363.843,306.163c50.105-76.75,41.501-180.898-25.827-248.228c-77.204-77.203-202.826-77.203-280.03,0
			C25.945,89.977,5.727,132.399,1.055,177.384c-4.604,44.336,5.965,89.348,29.761,126.742c2.965,4.661,9.147,6.033,13.806,3.068
			c4.659-2.965,6.033-9.147,3.068-13.806C3.329,223.675,13.606,130.599,72.129,72.077c69.407-69.406,182.338-69.406,251.744,0
			s69.406,182.338,0,251.744c-59.871,59.873-154.341,69.242-224.625,22.277c-4.591-3.068-10.803-1.833-13.871,2.759
			c-3.068,4.592-1.833,10.803,2.759,13.871c33.335,22.275,71.55,33.159,109.597,33.159c38.013,0,75.848-10.881,108.455-32.119
			l33.002,33.002c0.001,0.001,0.002,0.003,0.004,0.004c0.001,0.001,0.003,0.002,0.004,0.004l103.254,103.253
			c7.697,7.696,17.931,11.936,28.815,11.936s21.117-4.238,28.816-11.937C515.972,484.142,515.972,458.29,500.084,442.402z
			 M322.568,351.863c5.342-4.323,10.504-8.951,15.449-13.897c4.954-4.955,9.586-10.112,13.905-15.44l23.699,23.698
			c-0.059,0.056-0.122,0.105-0.18,0.163l-29.174,29.174L322.568,351.863z M485.942,485.889c-3.92,3.92-9.132,6.078-14.674,6.078
			s-10.753-2.158-14.673-6.077l-96.185-96.184l29.174-29.174c0.058-0.058,0.107-0.121,0.163-0.18l96.195,96.194
			C494.031,464.634,494.031,477.799,485.942,485.889z"/>
	</g>
</g>
<g>
	<g>
		<path d="M236.58,104.578c-5.104-2.109-10.953,0.315-13.064,5.419c-2.11,5.104,0.316,10.952,5.42,13.064
			c30.416,12.579,50.069,41.975,50.069,74.89c0,5.522,4.477,10.001,10.001,10.001s10.001-4.478,10.001-10.001
			C299.007,156.913,274.503,120.262,236.58,104.578z"/>
	</g>
</g>
<g>
	<g>
		<path d="M199.394,96.954c-0.464-0.007-0.928-0.01-1.394-0.01c-5.523,0-10.001,4.478-10.001,10.001
			c0,5.522,4.478,10.001,10.002,10.001c0.372,0,0.742,0.003,1.113,0.008c0.048,0.001,0.095,0.001,0.143,0.001
			c5.457,0,9.92-4.385,9.997-9.86C209.332,101.573,204.917,97.032,199.394,96.954z"/>
	</g>
</g>
<g>
</g>
<g>
</g>
<g>
</g>
<g>
</g>
<g>
</g>
<g>
</g>
<g>
</g>
<g>
</g>
<g>
</g>
<g>
</g>
<g>
</g>
<g>
</g>
<g>
</g>
<g>
</g>
<g>
</g>
</svg>
