<svg id="Capa_1" enable-background="new 0 0 512 512" height="512" viewBox="0 0 512 512" width="512" xmlns="http://www.w3.org/2000/svg"><g><g><path d="m492.006 432.5v-352.237h12.494v-25.8h-497v46.691h8.67v314.635h-8.67v50.057h497v-33.346z" fill="#d8ecfe"/><path d="m7.5 54.463v46.691h8.67v19.917h464.33v-66.608z" fill="#c4e2ff"/><path d="m447.67 260.154s-16.215 26.776-27.217 81l2.797 4.846h59.25v-85.846-205.691h-114.5s21.412 184.877 79.67 205.691z" fill="#c4e2ff"/><path d="m16.17 341.154h326.242l-149.976-159.419c-9.477-10.073-25.484-10.073-34.961 0l-141.305 150.203z" fill="#2abcc8"/><path d="m193.806 341.154h277.888l-121.673-126.1c-9.437-9.78-25.105-9.78-34.542 0z" fill="#93d8de"/><path d="m471.694 341.154-40.372-41.841c-3.704 11.425-7.526 25.367-10.869 41.841z" fill="#2abcc8"/><circle cx="269" cy="157.309" fill="#ffe177" r="29"/><g><path d="m110.691 121.071h-103.191v139.083h34.83c38.495-13.752 59.756-98.882 68.361-139.083z" fill="#fe646f"/></g><path d="m476.5 260.154v-133c0-3.313-2.686-6-6-6h-69.174c8.668 40.222 29.826 125.239 68.344 139z" fill="#fe646f"/><path d="m20.663 83.571-13.163 17.583v19.917h103.191c2.97-13.934 5.308-26.833 7.069-37.5z" fill="#fd4755"/><path d="m394.24 83.571c1.765 10.688 4.108 23.618 7.087 37.583h69.173c3.314 0 6 2.687 6 6v133h28c0-6.426 0-152.255 0-159l-14-17.583z" fill="#fd4755"/><path d="m480.5 101.154v-67c0-4.417-3.58-7.999-7.998-8h-457.002c-4.418 0-8 3.582-8 8v67h497z" fill="#c38f86"/><path d="m496.5 26.154h-28c4.418 0 8 3.582 8 8v67h28v-67c0-4.418-3.582-8-8-8z" fill="#b87d72"/><path d="m16.17 341.154v74.635h-8.67v3.172h497v-77.807z" fill="#5f99d7"/><path d="m16.17 387.154v28.635h-8.67v3.172l8.5 13.539h476.006v-45.346z" fill="#ab695d"/><path d="m420.453 341.154c-4.378 21.577-7.932 47.494-9.308 77.807h71.355v-77.807z" fill="#3c87d0"/><path d="m413.497 387.154c-1.035 10.005-1.843 20.604-2.352 31.807h71.355v-31.807z" fill="#935b50"/><path d="m42.33 260.154s31.689 52.312 36.525 158.807h-71.355v-158.807z" fill="#fe646f"/><path d="m46.33 252.654c-7.785 0-30.482 0-38.83 0v15h38.83c4.142 0 7.5-3.357 7.5-7.5s-3.358-7.5-7.5-7.5z" fill="#fe99a0"/><path d="m469.67 260.154s-31.689 52.313-36.525 158.807h43.355v-158.807z" fill="#fe646f"/><path d="m476.5 260.154h28v158.807h-28z" fill="#fd4755"/><path d="m465.67 252.654c-4.142 0-7.5 3.357-7.5 7.5s3.358 7.5 7.5 7.5h38.83v-15c-20.158 0-19.342 0-38.83 0z" fill="#fe99a0"/><path d="m480.5 477.846v-58.884h-473v58.884c0 4.418 3.582 8 8 8h457.002c4.418-.002 7.998-3.583 7.998-8z" fill="#c38f86"/><path d="m476.5 418.961v58.884c0 4.418-3.582 8-8 8h28c4.418 0 8-3.582 8-8v-58.884z" fill="#b87d72"/></g><g><path d="m496.5 18.654h-402.571c-4.142 0-7.5 3.357-7.5 7.5s3.358 7.5 7.5 7.5h402.571c.276 0 .5.225.5.5v59.5c-10.146 0-471.788 0-482 0v-59.5c0-.275.224-.5.5-.5h43.429c4.142 0 7.5-3.357 7.5-7.5s-3.358-7.5-7.5-7.5h-43.429c-8.547 0-15.5 6.953-15.5 15.5v443.691c0 8.547 6.953 15.5 15.5 15.5h481c8.547 0 15.5-6.953 15.5-15.5v-58.884-58.467c0-4.143-3.358-7.5-7.5-7.5s-7.5 3.357-7.5 7.5v50.967h-55.937c2.785-46.944 12.863-104.184 33.077-143.808h22.86v57.841c0 4.143 3.358 7.5 7.5 7.5s7.5-3.357 7.5-7.5v-65.341-159-67c0-8.546-6.953-15.499-15.5-15.499zm-481.5 249h22.859c20.381 39.958 30.411 98.842 33.078 143.808h-55.937zm305.876-47.392c6.487-6.722 17.243-6.741 23.748 0l95.18 98.643c-1.192 4.655-2.36 9.567-3.484 14.749h-224.855c2.38-2.466 103.383-107.145 109.411-113.392zm112.464 128.392c-1.734 9.574-3.289 19.909-4.574 31h-345.531c-1.285-11.091-2.841-21.426-4.574-31zm-348.579 46h342.478c-.457 5.222-.848 10.604-1.173 16.128-.013.227-.031.451-.044.679h-340.044c-.304-5.274-.735-11.3-1.217-16.807zm117.203-72.756-11.343 11.756h-114.942c-3.609-16.638-7.667-30.548-11.519-41.782l98.778-104.998c6.528-6.937 17.515-6.93 24.036 0l71.717 76.233zm242.536-19.729-89.082-92.323c-12.381-12.831-32.918-12.87-45.336 0l-40.964 42.454-71.219-75.704c-12.422-13.205-33.461-13.208-45.886 0l-93.722 99.624c-2.169-5.281-4.116-9.508-5.681-12.692 35.189-20.971 56.329-93.411 68.265-154.874h270.251c11.936 61.462 33.075 133.902 68.265 154.874-3.6 7.322-9.224 20.163-14.891 38.641zm-338.911-193.515c-16.154 81.618-39.513 133.733-64.641 144h-25.948v-144zm391.411 369.192c0 .275-.224.5-.5.5h-481c-.276 0-.5-.225-.5-.5v-51.384h482zm-25.948-225.192c-25.128-10.267-48.487-62.382-64.641-144h90.589v144z"/><path d="m269 120.809c-20.126 0-36.5 16.374-36.5 36.5s16.374 36.5 36.5 36.5 36.5-16.374 36.5-36.5-16.374-36.5-36.5-36.5zm0 58c-11.855 0-21.5-9.645-21.5-21.5s9.645-21.5 21.5-21.5 21.5 9.645 21.5 21.5-9.645 21.5-21.5 21.5z"/></g></g></svg>