<svg xmlns="http://www.w3.org/2000/svg" width="512" height="512"><path fill="#d8ecfe" d="M492.006 432.5V80.263H504.5v-25.8H7.5v46.691h8.67v314.635H7.5v50.057h497V432.5z"/><path fill="#c4e2ff" d="M7.5 54.463v46.691h8.67v19.917H480.5V54.463z"/><path fill="#c4e2ff" d="M447.67 260.154s-16.215 26.776-27.217 81L423.25 346h59.25V54.463H368s21.412 184.877 79.67 205.691z"/><path fill="#2abcc8" d="M16.17 341.154h326.242L192.436 181.735c-9.477-10.073-25.484-10.073-34.961 0L16.17 331.938z"/><path fill="#93d8de" d="M193.806 341.154h277.888l-121.673-126.1c-9.437-9.78-25.105-9.78-34.542 0z"/><path fill="#2abcc8" d="m471.694 341.154-40.372-41.841c-3.704 11.425-7.526 25.367-10.869 41.841z"/><circle cx="269" cy="157.309" r="29" fill="#ffe177"/><path fill="#fe646f" d="M110.691 121.071H7.5v139.083h34.83c38.495-13.752 59.756-98.882 68.361-139.083zM476.5 260.154v-133a6 6 0 0 0-6-6h-69.174c8.668 40.222 29.826 125.239 68.344 139z"/><path fill="#fd4755" d="M20.663 83.571 7.5 101.154v19.917h103.191a829.085 829.085 0 0 0 7.069-37.5zM394.24 83.571a828.716 828.716 0 0 0 7.087 37.583H470.5a6 6 0 0 1 6 6v133h28v-159l-14-17.583z"/><path fill="#c38f86" d="M480.5 101.154v-67a8 8 0 0 0-7.998-8H15.5a8 8 0 0 0-8 8v67h497z"/><path fill="#b87d72" d="M496.5 26.154h-28a8 8 0 0 1 8 8v67h28v-67a8 8 0 0 0-8-8z"/><path fill="#5f99d7" d="M16.17 341.154v74.635H7.5v3.172h497v-77.807z"/><path fill="#ab695d" d="M16.17 387.154v28.635H7.5v3.172L16 432.5h476.006v-45.346z"/><path fill="#3c87d0" d="M420.453 341.154c-4.378 21.577-7.932 47.494-9.308 77.807H482.5v-77.807z"/><path fill="#935b50" d="M413.497 387.154a552.92 552.92 0 0 0-2.352 31.807H482.5v-31.807z"/><path fill="#fe646f" d="M42.33 260.154s31.689 52.312 36.525 158.807H7.5V260.154z"/><path fill="#fe99a0" d="M46.33 252.654H7.5v15h38.83c4.142 0 7.5-3.357 7.5-7.5s-3.358-7.5-7.5-7.5z"/><path fill="#fe646f" d="M469.67 260.154s-31.689 52.313-36.525 158.807H476.5V260.154z"/><path fill="#fd4755" d="M476.5 260.154h28v158.807h-28z"/><path fill="#fe99a0" d="M465.67 252.654c-4.142 0-7.5 3.357-7.5 7.5s3.358 7.5 7.5 7.5h38.83v-15h-38.83z"/><path fill="#c38f86" d="M480.5 477.846v-58.884H7.5v58.884a8 8 0 0 0 8 8h457.002a8 8 0 0 0 7.998-8z"/><path fill="#b87d72" d="M476.5 418.961v58.884a8 8 0 0 1-8 8h28a8 8 0 0 0 8-8v-58.884z"/><path d="M496.5 18.654H93.929c-4.142 0-7.5 3.357-7.5 7.5s3.358 7.5 7.5 7.5H496.5a.5.5 0 0 1 .5.5v59.5H15v-59.5a.5.5 0 0 1 .5-.5h43.429c4.142 0 7.5-3.357 7.5-7.5s-3.358-7.5-7.5-7.5H15.5c-8.547 0-15.5 6.953-15.5 15.5v443.691c0 8.547 6.953 15.5 15.5 15.5h481c8.547 0 15.5-6.953 15.5-15.5V360.494c0-4.143-3.358-7.5-7.5-7.5s-7.5 3.357-7.5 7.5v50.967h-55.937c2.785-46.944 12.863-104.184 33.077-143.808H497v57.841c0 4.143 3.358 7.5 7.5 7.5s7.5-3.357 7.5-7.5V34.153c0-8.546-6.953-15.499-15.5-15.499zm-481.5 249h22.859c20.381 39.958 30.411 98.842 33.078 143.808H15zm305.876-47.392c6.487-6.722 17.243-6.741 23.748 0l95.18 98.643a408.458 408.458 0 0 0-3.484 14.749H211.465l109.411-113.392zM433.34 348.654a491.274 491.274 0 0 0-4.574 31H83.235a492.005 492.005 0 0 0-4.574-31zm-348.579 46h342.478a567.542 567.542 0 0 0-1.173 16.128c-.013.227-.031.451-.044.679H85.978a588.93 588.93 0 0 0-1.217-16.807zm117.203-72.756-11.343 11.756H75.679c-3.609-16.638-7.667-30.548-11.519-41.782l98.778-104.998c6.528-6.937 17.515-6.93 24.036 0l71.717 76.233zM444.5 302.169l-89.082-92.323c-12.381-12.831-32.918-12.87-45.336 0L269.118 252.3l-71.219-75.704c-12.422-13.205-33.461-13.208-45.886 0L58.291 276.22c-2.169-5.281-4.116-9.508-5.681-12.692 35.189-20.971 56.329-93.411 68.265-154.874h270.251c11.936 61.462 33.075 133.902 68.265 154.874-3.6 7.322-9.224 20.163-14.891 38.641zM105.589 108.654c-16.154 81.618-39.513 133.733-64.641 144H15v-144zM497 477.846a.5.5 0 0 1-.5.5h-481a.5.5 0 0 1-.5-.5v-51.384h482zm-25.948-225.192c-25.128-10.267-48.487-62.382-64.641-144H497v144z"/><path d="M269 120.809c-20.126 0-36.5 16.374-36.5 36.5s16.374 36.5 36.5 36.5 36.5-16.374 36.5-36.5-16.374-36.5-36.5-36.5zm0 58c-11.855 0-21.5-9.645-21.5-21.5s9.645-21.5 21.5-21.5 21.5 9.645 21.5 21.5-9.645 21.5-21.5 21.5z"/></svg>