<svg xmlns="http://www.w3.org/2000/svg" width="512" height="512"><path fill="#e1eeff" d="M497 158.533H15c-8.284 0-15-6.716-15-15V79.267C0 35.559 35.559 0 79.267 0h353.467C476.441 0 512 35.559 512 79.267v64.267c0 8.283-6.716 14.999-15 14.999z"/><path fill="#cfe3ff" d="M512 143.533V79.267C512 35.559 476.441 0 432.733 0H256v158.533h241c8.284 0 15-6.716 15-15z"/><path fill="#f3f9ff" d="M432.733 512H79.267C35.559 512 0 476.441 0 432.733v-289.2c0-8.284 6.716-15 15-15h482c8.284 0 15 6.716 15 15v289.2C512 476.441 476.441 512 432.733 512z"/><path fill="#e1eeff" d="M512 432.733v-289.2c0-8.284-6.716-15-15-15H256V512h176.733C476.441 512 512 476.441 512 432.733z"/><path fill="#070f15" d="M368.467 271c-8.284 0-15-6.716-15-15v-16.067c0-8.284 6.716-15 15-15s15 6.716 15 15V256c0 8.284-6.716 15-15 15z"/><path fill="#fc5896" d="M95.333 94.267H79.267c-8.284 0-15-6.716-15-15s6.716-15 15-15h16.066c8.284 0 15 6.716 15 15s-6.716 15-15 15z"/><path fill="#ffc54d" d="M167.634 94.267h-16.067c-8.284 0-15-6.716-15-15s6.716-15 15-15h16.067c8.284 0 15 6.716 15 15s-6.716 15-15 15z"/><path fill="#00d048" d="M239.934 94.267h-16.067c-8.284 0-15-6.716-15-15s6.716-15 15-15h16.067c8.284 0 15 6.716 15 15s-6.716 15-15 15z"/><path fill="#142d3f" d="M143.533 271c-8.284 0-15-6.716-15-15v-16.067c0-8.284 6.716-15 15-15s15 6.716 15 15V256c0 8.284-6.716 15-15 15zM269.496 319.79c-7.441-7.438-19.551-7.438-26.992 0-5.859 5.856-15.357 5.855-21.213-.006-5.856-5.859-5.854-15.357.006-21.213 19.135-19.125 50.271-19.125 69.406 0 5.859 5.856 5.862 15.354.006 21.213-5.856 5.86-15.355 5.862-21.213.006z"/><path fill="#070f15" d="M290.709 319.784c5.856-5.859 5.854-15.357-.006-21.213-9.567-9.562-22.135-14.344-34.703-14.344v29.984c4.888 0 9.775 1.859 13.496 5.578 5.858 5.857 15.357 5.855 21.213-.005z"/></svg>