<svg id="Layer_1" enable-background="new 0 0 512 512" height="512" viewBox="0 0 512 512" width="512" xmlns="http://www.w3.org/2000/svg"><g><path d="m497 158.533h-482c-8.284 0-15-6.716-15-15v-64.266c0-43.708 35.559-79.267 79.267-79.267h353.467c43.707 0 79.266 35.559 79.266 79.267v64.267c0 8.283-6.716 14.999-15 14.999z" fill="#e1eeff"/><path d="m512 143.533v-64.266c0-43.708-35.559-79.267-79.267-79.267h-176.733v158.533h241c8.284 0 15-6.716 15-15z" fill="#cfe3ff"/><path d="m432.733 512h-353.466c-43.708 0-79.267-35.559-79.267-79.267v-289.2c0-8.284 6.716-15 15-15h482c8.284 0 15 6.716 15 15v289.2c0 43.708-35.559 79.267-79.267 79.267z" fill="#f3f9ff"/><path d="m512 432.733v-289.2c0-8.284-6.716-15-15-15h-241v383.467h176.733c43.708 0 79.267-35.559 79.267-79.267z" fill="#e1eeff"/><path d="m368.467 271c-8.284 0-15-6.716-15-15v-16.067c0-8.284 6.716-15 15-15s15 6.716 15 15v16.067c0 8.284-6.716 15-15 15z" fill="#070f15"/><path d="m95.333 94.267h-16.066c-8.284 0-15-6.716-15-15s6.716-15 15-15h16.066c8.284 0 15 6.716 15 15s-6.716 15-15 15z" fill="#fc5896"/><path d="m167.634 94.267h-16.067c-8.284 0-15-6.716-15-15s6.716-15 15-15h16.067c8.284 0 15 6.716 15 15s-6.716 15-15 15z" fill="#ffc54d"/><path d="m239.934 94.267h-16.067c-8.284 0-15-6.716-15-15s6.716-15 15-15h16.067c8.284 0 15 6.716 15 15s-6.716 15-15 15z" fill="#00d048"/><path d="m143.533 271c-8.284 0-15-6.716-15-15v-16.067c0-8.284 6.716-15 15-15s15 6.716 15 15v16.067c0 8.284-6.716 15-15 15z" fill="#142d3f"/><path d="m269.496 319.79c-7.441-7.438-19.551-7.438-26.992 0-5.859 5.856-15.357 5.855-21.213-.006-5.856-5.859-5.854-15.357.006-21.213 19.135-19.125 50.271-19.125 69.406 0 5.859 5.856 5.862 15.354.006 21.213-5.856 5.86-15.355 5.862-21.213.006z" fill="#142d3f"/><path d="m290.709 319.784c5.856-5.859 5.854-15.357-.006-21.213-9.567-9.562-22.135-14.344-34.703-14.344v29.984c4.888 0 9.775 1.859 13.496 5.578 5.858 5.857 15.357 5.855 21.213-.005z" fill="#070f15"/></g></svg>