<svg id="Layer_1" enable-background="new 0 0 512 512" height="512" viewBox="0 0 512 512" width="512" xmlns="http://www.w3.org/2000/svg"><path d="m47.134 64.267c-25.989 0-47.134 21.144-47.134 47.133s21.145 47.133 47.134 47.133 47.133-21.144 47.133-47.133-21.144-47.133-47.133-47.133zm0 64.266c-9.447 0-17.134-7.686-17.134-17.133s7.687-17.133 17.134-17.133 17.133 7.686 17.133 17.133-7.686 17.133-17.133 17.133z"/><path d="m47.134 208.867c-25.989 0-47.134 21.144-47.134 47.133s21.145 47.133 47.134 47.133 47.133-21.144 47.133-47.133-21.144-47.133-47.133-47.133zm0 64.266c-9.447 0-17.134-7.686-17.134-17.133s7.687-17.133 17.134-17.133 17.133 7.686 17.133 17.133-7.686 17.133-17.133 17.133z"/><path d="m47.134 353.467c-25.989 0-47.134 21.144-47.134 47.133s21.145 47.133 47.134 47.133 47.133-21.144 47.133-47.133-21.144-47.133-47.133-47.133zm0 64.266c-9.447 0-17.134-7.686-17.134-17.133s7.687-17.133 17.134-17.133 17.133 7.686 17.133 17.133-7.686 17.133-17.133 17.133z"/><path d="m175.65 158.533h289.232c25.98 0 47.117-21.137 47.117-47.117 0-26.013-21.137-47.149-47.117-47.149h-289.232c-25.98 0-47.117 21.137-47.117 47.149 0 25.98 21.137 47.117 47.117 47.117zm0-64.266h289.232c9.438 0 17.117 7.679 17.117 17.117 0 9.471-7.679 17.149-17.117 17.149h-289.232c-9.438 0-17.117-7.679-17.117-17.149 0-9.439 7.679-17.117 17.117-17.117z"/><path d="m464.883 208.867h-289.233c-25.98 0-47.117 21.137-47.117 47.149 0 25.98 21.137 47.117 47.117 47.117h289.232c25.98 0 47.117-21.137 47.117-47.117.001-26.013-21.136-47.149-47.116-47.149zm0 64.266h-289.233c-9.438 0-17.117-7.679-17.117-17.149 0-9.438 7.679-17.117 17.117-17.117h289.232c9.438 0 17.117 7.679 17.117 17.117.001 9.471-7.678 17.149-17.116 17.149z"/><path d="m464.883 353.467h-289.233c-25.98 0-47.117 21.137-47.117 47.149 0 25.98 21.137 47.117 47.117 47.117h289.232c25.98 0 47.117-21.137 47.117-47.117.001-26.012-21.136-47.149-47.116-47.149zm0 64.266h-289.233c-9.438 0-17.117-7.679-17.117-17.149 0-9.438 7.679-17.117 17.117-17.117h289.232c9.438 0 17.117 7.679 17.117 17.117.001 9.471-7.678 17.149-17.116 17.149z"/></svg>