<svg xmlns="http://www.w3.org/2000/svg" width="512" height="512"><path fill="#eb5468" fill-rule="evenodd" d="M56.403 265.992c89.091 88.81 276.91 122.911 399.194 122.911V17.62c0-5.471-4.365-9.95-9.808-10.12H66.183c-5.414.17-9.779 4.649-9.779 10.12v248.372z" clip-rule="evenodd"/><path fill="#7fdbae" fill-rule="evenodd" d="M56.403 255.986V494.38c0 5.443 4.365 9.95 9.779 10.12h379.635c5.414-.17 9.779-4.677 9.779-10.12V378.896c-122.283 0-310.102-34.1-399.193-122.91z" clip-rule="evenodd"/><path fill="#eff6ff" fill-rule="evenodd" d="M293.912 226.165c14.938-18.992 23.839-42.945 23.839-68.995 0-61.682-50.002-111.685-111.682-111.685S94.387 95.488 94.387 157.17s50.002 111.685 111.682 111.685c35.659 0 67.406-16.696 87.843-42.69zm-7.993-68.995c0 14.683-4.167 26.561-18.822 26.561s-26.56-11.877-26.56-26.561c0-14.655 11.905-26.561 26.56-26.561s18.822 11.906 18.822 26.561zm-53.29 61.03c0 14.655-11.877 18.822-26.56 18.822-14.655 0-26.56-4.167-26.56-18.822s11.905-26.561 26.56-26.561c14.683 0 26.56 11.906 26.56 26.561zm0-122.06c0 14.684-11.877 26.561-26.56 26.561-14.655 0-26.56-11.877-26.56-26.561 0-14.655 11.905-18.794 26.56-18.794 14.683 0 26.56 4.138 26.56 18.794zM171.6 157.17c0 14.683-11.877 26.561-26.56 26.561-14.655 0-18.793-11.877-18.793-26.561 0-14.655 4.138-26.561 18.793-26.561 14.684 0 26.56 11.906 26.56 26.561z" clip-rule="evenodd"/><path fill="#375e7d" fill-rule="evenodd" d="M338.67 226.165h-44.758c-20.437 25.994-52.185 42.69-87.844 42.69H338.67c2.551 0 4.649-2.098 4.649-4.649v-33.421c0-2.55-2.097-4.62-4.649-4.62z" clip-rule="evenodd"/><path fill="#d9eeff" fill-rule="evenodd" d="M232.629 96.14c0 11.537-7.342 21.345-17.631 25.03 2.636 12.869 4.025 26.419 4.025 40.394 0 11.055-.879 21.827-2.523 32.202 9.496 4.054 16.129 13.465 16.129 24.435 0 14.655-11.877 18.822-26.56 18.822-.595 0-1.219-.028-1.814-.028-4.649 11.027-10.261 21.203-16.724 30.331a111.104 111.104 0 0 0 18.538 1.531c35.659 0 67.406-16.696 87.844-42.69 14.938-18.992 23.839-42.945 23.839-68.995 0-61.682-50.002-111.685-111.682-111.685-8.362 0-16.526.935-24.349 2.665 7.086 8.731 13.351 18.595 18.652 29.424 1.842-.17 3.742-.227 5.697-.227 14.682-.003 26.559 4.135 26.559 18.791zm53.29 61.03c0 14.683-4.167 26.561-18.822 26.561s-26.56-11.877-26.56-26.561c0-14.655 11.905-26.561 26.56-26.561s18.822 11.906 18.822 26.561z" clip-rule="evenodd"/><path fill="#2b4d66" fill-rule="evenodd" d="M293.912 226.165c-20.437 25.994-52.185 42.69-87.844 42.69h80.984c7.54-6.378 14.456-13.521 20.551-21.317a146.866 146.866 0 0 0 14.003-21.373z" clip-rule="evenodd"/><path fill="#ffd772" fill-rule="evenodd" d="m362.991 100.108 12.019 23.726c1.616 3.203 2.835 3.175 4.45 0l12.019-23.726 23.697-12.019c3.203-1.616 3.231-2.835.028-4.45L391.479 71.62 379.46 47.894c-1.644-3.203-2.835-3.203-4.45 0L362.991 71.62l-23.725 12.019c-3.203 1.616-3.203 2.806 0 4.45z" clip-rule="evenodd"/><path fill="#3bc3a4" fill-rule="evenodd" d="M455.597 378.896c-16.129 0-33.391-.595-51.391-1.814a358.442 358.442 0 0 1-3.118 9.78c-8.645 26.05-19.927 50.202-33.363 71.773-10.573 16.951-22.478 32.343-35.489 45.865h113.582c5.414-.17 9.779-4.677 9.779-10.12V388.903z" clip-rule="evenodd"/><path fill="#e5384f" fill-rule="evenodd" d="M404.206 377.082c18 1.219 35.262 1.814 51.391 1.814V17.62c0-5.471-4.365-9.95-9.808-10.12H319.934c17.518 15.817 33.335 34.81 46.941 56.438l8.135-16.044c1.616-3.203 2.806-3.203 4.45 0l12.019 23.726 23.725 12.019c3.203 1.616 3.175 2.835-.028 4.45l-23.697 12.019-2.636 5.187c20.296 45.808 31.946 99.383 31.946 156.643 0 25.994-2.381 51.194-6.888 75.26a392.038 392.038 0 0 1-9.695 39.884z" clip-rule="evenodd"/><path fill="#fbba58" fill-rule="evenodd" d="m391.479 100.108 23.697-12.019c3.203-1.616 3.231-2.835.028-4.45L391.479 71.62 379.46 47.894c-1.644-3.203-2.835-3.203-4.45 0l-8.135 16.044c8.135 12.898 15.505 26.731 21.968 41.358z" clip-rule="evenodd"/><path d="M196.602 369.582H94.387a7.5 7.5 0 0 0 0 15h102.215a7.5 7.5 0 0 0 0-15zM271.916 410.373H158.618a7.5 7.5 0 0 0 0 15h113.298c4.143 0 7.5-3.358 7.5-7.5s-3.357-7.5-7.5-7.5zM94.387 425.373h24.235a7.5 7.5 0 0 0 0-15H94.387a7.5 7.5 0 0 0 0 15zM94.387 466.135h24.235a7.5 7.5 0 0 0 0-15H94.387a7.5 7.5 0 0 0 0 15zM271.916 451.135H158.618a7.5 7.5 0 0 0 0 15h113.298c4.143 0 7.5-3.358 7.5-7.5s-3.357-7.5-7.5-7.5zM198.569 157.113v.113a7.5 7.5 0 0 0 15 0v-.113a7.5 7.5 0 0 0-15 0z"/><path d="M455.597 164.301a7.5 7.5 0 0 0 7.5-7.5V17.62c0-9.715-7.904-17.62-17.619-17.62H66.522c-9.715 0-17.619 7.904-17.619 17.62v368.505a7.5 7.5 0 0 0 15 0V273.113c41.335 35.53 102.308 64.709 177.711 84.877 65.042 17.397 139.833 27.64 206.482 28.361V494.38c0 1.42-1.199 2.62-2.619 2.62H66.522c-1.42 0-2.619-1.2-2.619-2.62v-73.616a7.5 7.5 0 0 0-15 0v73.616c0 9.715 7.904 17.62 17.619 17.62h378.955c9.715 0 17.619-7.904 17.619-17.62V191.441c0-4.142-3.357-7.5-7.5-7.5s-7.5 3.358-7.5 7.5v179.91c-129.474-1.39-301.668-38.64-384.193-118.536V17.62A2.623 2.623 0 0 1 66.522 15h378.955c1.42 0 2.619 1.2 2.619 2.62v139.182a7.5 7.5 0 0 0 7.501 7.499z"/><path d="M206.069 37.984c-65.717 0-119.182 53.466-119.182 119.186 0 65.719 53.465 119.185 119.182 119.185h132.602c6.698 0 12.148-5.45 12.148-12.148v-33.421c0-6.683-5.45-12.121-12.148-12.121h-30.545c10.865-17.965 17.125-39.012 17.125-61.495 0-65.719-53.465-119.186-119.182-119.186zM101.887 157.17c0-57.448 46.736-104.186 104.182-104.186S310.251 99.721 310.251 157.17c0 57.448-46.736 104.185-104.182 104.185S101.887 214.618 101.887 157.17zm233.932 76.495v27.69h-71.927a120.016 120.016 0 0 0 33.495-27.69z"/><path d="M240.129 218.2c0-18.781-15.279-34.061-34.06-34.061s-34.06 15.279-34.06 34.061c0 9.831 4.425 26.322 34.06 26.322s34.06-16.492 34.06-26.322zm-53.12 0c0-10.51 8.55-19.061 19.06-19.061s19.06 8.55 19.06 19.061c0 3.957 0 11.322-19.06 11.322s-19.06-7.365-19.06-11.322zM206.069 130.2c18.781 0 34.06-15.279 34.06-34.061 0-9.82-4.425-26.294-34.06-26.294s-34.06 16.474-34.06 26.294c0 18.782 15.279 34.061 34.06 34.061zm0-45.354c19.06 0 19.06 7.347 19.06 11.294 0 10.51-8.55 19.061-19.06 19.061s-19.06-8.55-19.06-19.061c0-3.948 0-11.294 19.06-11.294zM145.041 123.109c-9.82 0-26.293 4.425-26.293 34.061s16.474 34.061 26.293 34.061c18.781 0 34.06-15.279 34.06-34.061s-15.28-34.061-34.06-34.061zm0 53.121c-3.947 0-11.293 0-11.293-19.061s7.347-19.061 11.293-19.061c10.51 0 19.06 8.551 19.06 19.061s-8.551 19.061-19.06 19.061zM267.098 191.23c9.83 0 26.321-4.425 26.321-34.061s-16.491-34.061-26.321-34.061c-18.781 0-34.06 15.28-34.06 34.061s15.279 34.061 34.06 34.061zm0-53.121c3.957 0 11.321 0 11.321 19.061s-7.364 19.061-11.321 19.061c-10.51 0-19.06-8.55-19.06-19.061s8.55-19.061 19.06-19.061zM425.093 85.854c0-3.734-2.19-6.733-6.499-8.906L397.059 66.04l-10.926-21.569c-2.206-4.3-5.201-6.479-8.905-6.479h-.033c-3.717.013-6.705 2.209-8.875 6.514L357.411 66.04l-21.523 10.903c-4.316 2.177-6.512 5.166-6.524 8.881-.013 3.718 2.166 6.725 6.513 8.956l21.535 10.909 10.901 21.521c2.177 4.316 5.172 6.509 8.902 6.516h.018c3.722 0 6.721-2.184 8.918-6.503l10.909-21.536 21.494-10.901c4.339-2.189 6.539-5.194 6.539-8.932zm-37.007 7.565a7.5 7.5 0 0 0-3.298 3.3l-7.553 14.911-7.554-14.911a7.498 7.498 0 0 0-3.301-3.301l-14.911-7.554 14.911-7.554a7.498 7.498 0 0 0 3.301-3.301l7.553-14.911 7.554 14.911a7.498 7.498 0 0 0 3.301 3.301l14.902 7.549zM402.732 466.135c4.143 0 7.5-3.358 7.5-7.5s-3.357-7.5-7.5-7.5h-54.566c-4.143 0-7.5 3.358-7.5 7.5s3.357 7.5 7.5 7.5zM389.977 299.992h-41.811c-4.143 0-7.5 3.358-7.5 7.5s3.357 7.5 7.5 7.5h41.811a7.5 7.5 0 0 0 0-15zM348.166 344.699h72.622c4.143 0 7.5-3.358 7.5-7.5s-3.357-7.5-7.5-7.5h-72.622c-4.143 0-7.5 3.358-7.5 7.5s3.357 7.5 7.5 7.5z"/></svg>