<svg id="Capa_1" enable-background="new 0 0 512 512" height="512" viewBox="0 0 512 512" width="512" xmlns="http://www.w3.org/2000/svg"><g id="XMLID_1227_"><path id="XMLID_1236_" d="m462 50h-412c-22.091 0-40 17.909-40 40v332c0 22.091 17.909 40 40 40h412c22.091 0 40-17.909 40-40v-332c0-22.091-17.909-40-40-40z" fill="#e2e7ef"/><path id="XMLID_1235_" d="m462 50h-412c-22.091 0-40 17.909-40 40v252h492v-252c0-22.091-17.909-40-40-40z" fill="#ff7d95"/><circle id="XMLID_1233_" cx="99.924" cy="402" fill="#d0ace4" r="20"/><path id="XMLID_1229_" d="m242.665 149.638 52.52 30.323c12.347 7.128 12.347 24.95 0 32.078l-52.52 30.323c-12.347 7.128-27.78-1.782-27.78-16.039v-60.645c0-14.257 15.433-23.168 27.78-16.04z" fill="#fff"/><g id="XMLID_1114_"><path id="XMLID_1119_" d="m462 40h-160.866c-5.522 0-10 4.477-10 10s4.478 10 10 10h160.866c16.542 0 30 13.458 30 30v242h-472v-242c0-16.542 13.458-30 30-30h161.134c5.522 0 10-4.477 10-10s-4.478-10-10-10h-161.134c-27.57 0-50 22.43-50 50v332c0 27.57 22.43 50 50 50h412c27.57 0 50-22.43 50-50v-332c0-27.57-22.43-50-50-50zm0 412h-412c-16.542 0-30-13.458-30-30v-70h472v70c0 16.542-13.458 30-30 30z"/><path id="XMLID_1192_" d="m99.925 372c-16.542 0-30 13.458-30 30s13.458 30 30 30 30-13.458 30-30-13.458-30-30-30zm0 40c-5.514 0-10-4.486-10-10s4.486-10 10-10 10 4.486 10 10-4.487 10-10 10z"/><path id="XMLID_1245_" d="m432.075 392h-249.086c-5.523 0-10 4.477-10 10s4.477 10 10 10h249.086c5.522 0 10-4.477 10-10s-4.477-10-10-10z"/><path id="XMLID_1248_" d="m204.885 165.677v60.646c0 10.311 5.331 19.544 14.26 24.699 4.465 2.578 9.363 3.867 14.261 3.867 4.897 0 9.795-1.289 14.26-3.867l52.52-30.323c8.929-5.155 14.26-14.389 14.26-24.699s-5.331-19.544-14.26-24.699l-52.52-30.323c-8.928-5.155-19.589-5.155-28.52 0-8.93 5.155-14.261 14.389-14.261 24.699zm20 0c0-4.44 2.98-6.639 4.26-7.379.779-.449 2.337-1.172 4.304-1.172 1.269 0 2.709.302 4.217 1.172l52.52 30.323c3.845 2.22 4.26 5.9 4.26 7.379s-.415 5.159-4.26 7.379l-52.52 30.323c-3.846 2.218-7.239.739-8.52 0-1.28-.74-4.26-2.939-4.26-7.379v-60.646z"/><path id="XMLID_1249_" d="m256.13 60c2.63 0 5.21-1.07 7.07-2.93 1.859-1.86 2.93-4.44 2.93-7.07s-1.07-5.21-2.93-7.07-4.44-2.93-7.07-2.93-5.21 1.07-7.08 2.93c-1.86 1.86-2.92 4.44-2.92 7.07s1.06 5.21 2.92 7.07c1.87 1.86 4.45 2.93 7.08 2.93z"/></g></g></svg>