<svg xmlns="http://www.w3.org/2000/svg" version="1.1" width="512" height="512" x="0" y="0" viewBox="0 0 512 512" style="enable-background:new 0 0 512 512" xml:space="preserve" class=""><g><path fill="#f7c700" d="M256 0C114.836 0 0 114.836 0 256s114.836 256 256 256 256-114.836 256-256S397.164 0 256 0zm0 0" data-original="#2196f3" class=""></path><path fill="#ffffff" d="M377.75 388.414a21.277 21.277 0 0 1-15.082 6.254 21.27 21.27 0 0 1-15.082-6.254L240.918 281.75a21.237 21.237 0 0 1-6.25-15.082V128c0-11.797 9.555-21.332 21.332-21.332s21.332 9.535 21.332 21.332v129.836L377.75 358.25c8.34 8.344 8.34 21.824 0 30.164zm0 0" data-original="#ffffff"></path></g></svg>
