<svg height="411pt" viewBox="-34 0 411 411.41248" width="411pt" xmlns="http://www.w3.org/2000/svg"><path d="m170.410156 248.875c-79.613281 0-149.507812-53.667969-169.972656-130.515625-.96875-3.644531 1.199219-7.382813 4.84375-8.355469 3.609375-.953125 7.382812 1.195313 8.355469 4.839844 18.867187 70.878906 83.339843 120.378906 156.773437 120.378906 76.726563 0 143.566406-54.476562 158.925782-129.523437.753906-3.695313 4.371093-6.101563 8.054687-5.316407 3.691406.75 6.078125 4.363282 5.320313 8.054688-16.65625 81.375-89.121094 140.4375-172.300782 140.4375zm0 0"/><path d="m7.042969 392.097656c-.453125 0-.914063-.042968-1.375-.140625-3.691407-.753906-6.078125-4.363281-5.320313-8.058593 16.65625-81.371094 89.121094-140.4375 172.300782-140.4375 79.613281 0 149.507812 53.671874 169.972656 130.515624.96875 3.644532-1.199219 7.382813-4.839844 8.355469-3.632812.960938-7.378906-1.191406-8.359375-4.839843-18.867187-70.875-83.339844-120.375-156.769531-120.375-76.726563 0-143.566406 54.472656-158.929688 129.523437-.660156 3.230469-3.507812 5.457031-6.679687 5.457031zm0 0"/><path d="m203.277344 59.4375c-3.773438 0-6.828125-3.058594-6.828125-6.828125 0-29.007813 23.601562-52.609375 52.613281-52.609375 3.773438 0 6.828125 3.054688 6.828125 6.828125 0 3.769531-3.054687 6.824219-6.828125 6.824219-21.480469 0-38.957031 17.476562-38.957031 38.957031 0 3.769531-3.058594 6.828125-6.828125 6.828125zm0 0"/><path d="m135.1875 59.4375c-3.773438 0-6.824219-3.058594-6.824219-6.828125 0-21.480469-17.472656-38.957031-38.953125-38.957031-3.773437 0-6.828125-3.054688-6.828125-6.824219 0-3.773437 3.054688-6.828125 6.828125-6.828125 29.007813 0 52.605469 23.601562 52.605469 52.609375 0 3.769531-3.054687 6.828125-6.828125 6.828125zm0 0"/><path d="m238.496094 91.785156c0 37.605469-30.484375 68.089844-68.085938 68.089844-37.605468 0-68.089844-30.484375-68.089844-68.089844 0-37.605468 30.484376-68.089844 68.089844-68.089844 37.601563 0 68.085938 30.484376 68.085938 68.089844zm0 0" fill="#99783d"/><path d="m170.410156 166.699219c-41.308594 0-74.914062-33.605469-74.914062-74.914063s33.605468-74.914062 74.914062-74.914062 74.914063 33.605468 74.914063 74.914062-33.609375 74.914063-74.914063 74.914063zm0-136.175781c-33.78125 0-61.261718 27.480468-61.261718 61.261718s27.480468 61.261719 61.261718 61.261719 61.261719-27.484375 61.261719-61.261719-27.480469-61.261718-61.261719-61.261718zm0 0"/><path d="m325.367188 250.984375c0-84.828125-69.902344-153.597656-156.132813-153.597656s-156.132813 68.769531-156.132813 153.597656c0 84.832031 69.902344 153.601563 156.132813 153.601563s156.132813-68.769532 156.132813-153.601563zm0 0" fill="#ee5281"/><path d="m169.234375 411.414062c-89.851563 0-162.957031-71.96875-162.957031-160.429687 0-88.457031 73.105468-160.425781 162.957031-160.425781 89.855469 0 162.960937 71.96875 162.960937 160.425781 0 88.460937-73.105468 160.429687-162.960937 160.429687zm0-307.203124c-82.324219 0-149.304687 65.84375-149.304687 146.773437s66.980468 146.773437 149.304687 146.773437c82.328125 0 149.308594-65.84375 149.308594-146.773437s-66.980469-146.773437-149.308594-146.773437zm0 0"/><path d="m245.539062 162.21875c0 11.671875-9.460937 21.132812-21.128906 21.132812-11.671875 0-21.132812-9.460937-21.132812-21.132812 0-11.667969 9.460937-21.128906 21.132812-21.128906 11.667969 0 21.128906 9.460937 21.128906 21.128906zm0 0" fill="#8c6b37"/><path d="m224.410156 190.175781c-15.421875 0-27.960937-12.539062-27.960937-27.957031s12.539062-27.957031 27.960937-27.957031c15.417969 0 27.960938 12.539062 27.960938 27.957031s-12.539063 27.957031-27.960938 27.957031zm0-42.257812c-7.886718 0-14.308594 6.414062-14.308594 14.300781s6.421876 14.304688 14.308594 14.304688c7.886719 0 14.304688-6.417969 14.304688-14.304688s-6.417969-14.300781-14.304688-14.300781zm0 0"/><path d="m132.839844 162.21875c0 11.671875-9.460938 21.132812-21.128906 21.132812-11.671876 0-21.128907-9.460937-21.128907-21.132812 0-11.667969 9.457031-21.128906 21.128907-21.128906 11.667968 0 21.128906 9.460937 21.128906 21.128906zm0 0" fill="#8c6b37"/><path d="m111.710938 190.175781c-15.414063 0-27.957032-12.539062-27.957032-27.957031s12.542969-27.957031 27.957032-27.957031c15.417968 0 27.957031 12.539062 27.957031 27.957031s-12.539063 27.957031-27.957031 27.957031zm0-42.257812c-7.886719 0-14.300782 6.414062-14.300782 14.300781s6.414063 14.304688 14.300782 14.304688c7.882812 0 14.304687-6.417969 14.304687-14.304688s-6.421875-14.300781-14.304687-14.300781zm0 0"/><path d="m132.839844 335.960938c0 11.671874-9.460938 21.132812-21.128906 21.132812-11.671876 0-21.128907-9.460938-21.128907-21.132812 0-11.667969 9.457031-21.128907 21.128907-21.128907 11.667968 0 21.128906 9.460938 21.128906 21.128907zm0 0" fill="#8c6b37"/><path d="m111.710938 363.917969c-15.414063 0-27.957032-12.539063-27.957032-27.957031 0-15.414063 12.542969-27.957032 27.957032-27.957032 15.417968 0 27.957031 12.542969 27.957031 27.957032 0 15.417968-12.539063 27.957031-27.957031 27.957031zm0-42.257813c-7.886719 0-14.300782 6.414063-14.300782 14.300782 0 7.886718 6.414063 14.304687 14.300782 14.304687 7.882812 0 14.304687-6.417969 14.304687-14.304687 0-7.886719-6.421875-14.300782-14.304687-14.300782zm0 0"/><path d="m78.839844 249.089844c0 11.671875-9.460938 21.132812-21.128906 21.132812-11.671876 0-21.132813-9.460937-21.132813-21.132812 0-11.667969 9.460937-21.128906 21.132813-21.128906 11.667968 0 21.128906 9.460937 21.128906 21.128906zm0 0" fill="#8c6b37"/><path d="m57.710938 277.050781c-15.421876 0-27.960938-12.542969-27.960938-27.957031 0-15.417969 12.539062-27.960938 27.960938-27.960938 15.417968 0 27.960937 12.542969 27.960937 27.960938 0 15.414062-12.542969 27.957031-27.960937 27.957031zm0-42.265625c-7.886719 0-14.308594 6.417969-14.308594 14.308594 0 7.886719 6.421875 14.304688 14.308594 14.304688 7.886718 0 14.304687-6.417969 14.304687-14.304688 0-7.890625-6.417969-14.308594-14.304687-14.308594zm0 0"/><path d="m301.886719 249.089844c0 11.671875-9.457031 21.132812-21.128907 21.132812-11.667968 0-21.128906-9.460937-21.128906-21.132812 0-11.667969 9.460938-21.128906 21.128906-21.128906 11.671876 0 21.128907 9.460937 21.128907 21.128906zm0 0" fill="#8c6b37"/><path d="m280.757812 277.050781c-15.414062 0-27.957031-12.542969-27.957031-27.957031 0-15.417969 12.542969-27.960938 27.957031-27.960938 15.417969 0 27.957032 12.542969 27.957032 27.960938 0 15.414062-12.539063 27.957031-27.957032 27.957031zm0-42.265625c-7.886718 0-14.300781 6.417969-14.300781 14.308594 0 7.886719 6.414063 14.304688 14.300781 14.304688 7.886719 0 14.304688-6.417969 14.304688-14.304688 0-7.890625-6.417969-14.308594-14.304688-14.308594zm0 0"/><path d="m247.886719 335.960938c0 11.671874-9.460938 21.132812-21.128907 21.132812-11.671874 0-21.128906-9.460938-21.128906-21.132812 0-11.667969 9.457032-21.128907 21.128906-21.128907 11.667969 0 21.128907 9.460938 21.128907 21.128907zm0 0" fill="#8c6b37"/><path d="m226.753906 363.917969c-15.410156 0-27.953125-12.539063-27.953125-27.957031 0-15.414063 12.542969-27.957032 27.953125-27.957032 15.421875 0 27.960938 12.542969 27.960938 27.957032 0 15.417968-12.539063 27.957031-27.960938 27.957031zm0-42.257813c-7.886718 0-14.296875 6.414063-14.296875 14.300782 0 7.886718 6.410157 14.304687 14.296875 14.304687 7.886719 0 14.308594-6.417969 14.308594-14.304687 0-7.886719-6.421875-14.300782-14.308594-14.300782zm0 0"/><path d="m168.269531 411.414062c-3.773437 0-6.828125-3.058593-6.828125-6.828124v-307.199219c0-3.769531 3.054688-6.828125 6.828125-6.828125 3.773438 0 6.828125 3.058594 6.828125 6.828125v307.199219c0 3.769531-3.054687 6.828124-6.828125 6.828124zm0 0"/><path d="m200.363281 56.03125c-3.996093-2.648438-9.378906-1.554688-12.023437 2.4375-2.648438 3.992188-1.558594 9.375 2.433594 12.023438 3.992187 2.648437 9.375 1.554687 12.023437-2.4375 2.648437-3.992188 1.558594-9.375-2.433594-12.023438zm0 0"/><path d="m152.574219 56.03125c-3.992188-2.648438-9.375-1.558594-12.023438 2.433594-2.644531 3.992187-1.554687 9.378906 2.4375 12.023437 3.992188 2.648438 9.375 1.558594 12.023438-2.433593 2.648437-3.992188 1.558593-9.378907-2.4375-12.023438zm0 0"/></svg>