<?xml version="1.0"?>
<svg xmlns="http://www.w3.org/2000/svg" id="Layer_2" data-name="Layer 2" width="512" height="512" viewBox="0 0 24 24"><path d="M19.782,9H15.388l.863-2.592a3.9,3.9,0,0,0-1.532-4.464,2.447,2.447,0,0,0-3.341.63l-4.693,6.7A.993.993,0,0,0,6,9H2a1,1,0,0,0-1,1V22a1,1,0,0,0,1,1H6a1,1,0,0,0,1-1v-.132l1.445.964A1.006,1.006,0,0,0,9,23h9a1,1,0,0,0,.895-.553l3.658-7.317A4.264,4.264,0,0,0,23,13.236V12.218A3.222,3.222,0,0,0,19.782,9ZM5,21H3V11H5Zm16-7.764a2.255,2.255,0,0,1-.236,1L17.382,21H9.3L7,19.465v-7.15L13.017,3.72a.43.43,0,0,1,.593-.112,1.893,1.893,0,0,1,.744,2.168l-1.3,3.908A1,1,0,0,0,14,11h5.782A1.219,1.219,0,0,1,21,12.218Z"/></svg>
