<svg xmlns="http://www.w3.org/2000/svg" width="512" height="512"><path d="M47.134 64.267C21.145 64.267 0 85.411 0 111.4s21.145 47.133 47.134 47.133 47.133-21.144 47.133-47.133-21.144-47.133-47.133-47.133zm0 64.266C37.687 128.533 30 120.847 30 111.4s7.687-17.133 17.134-17.133 17.133 7.686 17.133 17.133-7.686 17.133-17.133 17.133zM47.134 208.867C21.145 208.867 0 230.011 0 256s21.145 47.133 47.134 47.133S94.267 281.989 94.267 256s-21.144-47.133-47.133-47.133zm0 64.266C37.687 273.133 30 265.447 30 256s7.687-17.133 17.134-17.133S64.267 246.553 64.267 256s-7.686 17.133-17.133 17.133zM47.134 353.467C21.145 353.467 0 374.611 0 400.6s21.145 47.133 47.134 47.133 47.133-21.144 47.133-47.133-21.144-47.133-47.133-47.133zm0 64.266C37.687 417.733 30 410.047 30 400.6s7.687-17.133 17.134-17.133 17.133 7.686 17.133 17.133-7.686 17.133-17.133 17.133zM175.65 158.533h289.232c25.98 0 47.117-21.137 47.117-47.117 0-26.013-21.137-47.149-47.117-47.149H175.65c-25.98 0-47.117 21.137-47.117 47.149 0 25.98 21.137 47.117 47.117 47.117zm0-64.266h289.232c9.438 0 17.117 7.679 17.117 17.117 0 9.471-7.679 17.149-17.117 17.149H175.65c-9.438 0-17.117-7.679-17.117-17.149 0-9.439 7.679-17.117 17.117-17.117zM464.883 208.867H175.65c-25.98 0-47.117 21.137-47.117 47.149 0 25.98 21.137 47.117 47.117 47.117h289.232c25.98 0 47.117-21.137 47.117-47.117.001-26.013-21.136-47.149-47.116-47.149zm0 64.266H175.65c-9.438 0-17.117-7.679-17.117-17.149 0-9.438 7.679-17.117 17.117-17.117h289.232c9.438 0 17.117 7.679 17.117 17.117.001 9.471-7.678 17.149-17.116 17.149zM464.883 353.467H175.65c-25.98 0-47.117 21.137-47.117 47.149 0 25.98 21.137 47.117 47.117 47.117h289.232c25.98 0 47.117-21.137 47.117-47.117.001-26.012-21.136-47.149-47.116-47.149zm0 64.266H175.65c-9.438 0-17.117-7.679-17.117-17.149 0-9.438 7.679-17.117 17.117-17.117h289.232c9.438 0 17.117 7.679 17.117 17.117.001 9.471-7.678 17.149-17.116 17.149z"/></svg>