<svg xmlns="http://www.w3.org/2000/svg" width="512" height="512"><path d="M464.883 64.267H175.65c-25.98 0-47.117 21.137-47.117 47.149 0 25.98 21.137 47.117 47.117 47.117h289.232c25.98 0 47.117-21.137 47.117-47.117.001-26.013-21.136-47.149-47.116-47.149zM47.134 64.267C21.145 64.267 0 85.411 0 111.4s21.145 47.133 47.134 47.133 47.133-21.144 47.133-47.133-21.144-47.133-47.133-47.133zM47.134 208.867C21.145 208.867 0 230.011 0 256s21.145 47.133 47.134 47.133S94.267 281.989 94.267 256s-21.144-47.133-47.133-47.133zM47.134 353.467C21.145 353.467 0 374.611 0 400.6s21.145 47.133 47.134 47.133 47.133-21.144 47.133-47.133-21.144-47.133-47.133-47.133zM464.883 208.867H175.65c-25.98 0-47.117 21.137-47.117 47.149 0 25.98 21.137 47.117 47.117 47.117h289.232c25.98 0 47.117-21.137 47.117-47.117.001-26.013-21.136-47.149-47.116-47.149zM464.883 353.467H175.65c-25.98 0-47.117 21.137-47.117 47.149 0 25.98 21.137 47.117 47.117 47.117h289.232c25.98 0 47.117-21.137 47.117-47.117.001-26.012-21.136-47.149-47.116-47.149z"/></svg>