<svg xmlns="http://www.w3.org/2000/svg" width="512" height="512" viewBox="0 0 488.472 488.472"><path d="M331.351 96.061c-5.963-5.963-15.622-5.963-21.585 0L4.472 401.355c-5.963 5.963-5.963 15.622 0 21.585l61.059 61.059c2.981 2.981 6.887 4.472 10.793 4.472s7.811-1.491 10.793-4.472L392.41 178.705c5.963-5.963 5.963-15.622 0-21.585l-61.059-61.059zM76.323 451.622 36.85 412.148l207.385-207.385 39.474 39.474L76.323 451.622zm228.971-228.971-39.474-39.474 54.738-54.738 39.474 39.474zM213.707 122.118c15.265-30.529 30.529-45.794 61.059-61.059C244.237 45.794 228.972 30.53 213.707 0c-15.265 30.529-30.531 45.794-61.059 61.059 30.53 15.265 45.794 30.53 61.059 61.059zM457.942 213.707c-7.632 15.265-15.267 22.897-30.529 30.529 15.265 7.632 22.897 15.265 30.529 30.529 7.632-15.265 15.265-22.897 30.529-30.529-15.264-7.632-22.896-15.265-30.529-30.529zM457.942 45.795C435.045 34.346 423.596 22.898 412.148.001c-11.449 22.897-22.899 34.346-45.794 45.794 22.897 11.449 34.346 22.897 45.794 45.794 11.449-22.897 22.897-34.346 45.794-45.794z"/></svg>