<svg id="Icon" height="512" viewBox="0 0 64 64" width="512" xmlns="http://www.w3.org/2000/svg"><path d="m59 15.43v33.14a4.005 4.005 0 0 1 -4 4h-46a4.005 4.005 0 0 1 -4-4v-33.14a4.005 4.005 0 0 1 4-4h46a4.005 4.005 0 0 1 4 4z" fill="#57a0d7"/><path d="m59 15.43v33.14a4.005 4.005 0 0 1 -4 4h-42a4.005 4.005 0 0 1 -4-4v-33.14a4.005 4.005 0 0 1 4-4h42a4.005 4.005 0 0 1 4 4z" fill="#70b2e2"/><path d="m55 10.435h-46a5.006 5.006 0 0 0 -5 5v33.13a5.006 5.006 0 0 0 5 5h46a5.006 5.006 0 0 0 5-5v-33.13a5.006 5.006 0 0 0 -5-5zm-46 2h46a3 3 0 0 1 3 3v3.365l-26 12.1-26-12.1v-3.365a3 3 0 0 1 3-3zm46 39.13h-46a3 3 0 0 1 -3-3v-27.565l19.716 9.176-12.734 10.508a1 1 0 1 0 1.272 1.543l13.471-11.113 3.853 1.793a1 1 0 0 0 .844 0l3.853-1.793 13.471 11.113a1 1 0 0 0 1.272-1.543l-12.734-10.5 19.716-9.184v27.565a3 3 0 0 1 -3 3z"/></svg>