<svg xmlns="http://www.w3.org/2000/svg" xml:space="preserve" width="512" height="512" style="enable-background:new 0 0 512 512" viewBox="0 0 682.667 682.667"><g stroke-width="30" transform="matrix(.96 0 0 .96 13.653 13.653)"><defs style="stroke-width:30"><clipPath id="a" stroke-width="30" clipPathUnits="userSpaceOnUse" style="stroke-width:30"><path d="M0 512h512V0H0Z" data-original="#000000" style="stroke-width:30"/></clipPath></defs><g fill="none" stroke="#000" stroke-linecap="round" stroke-linejoin="round" stroke-miterlimit="10" clip-path="url(#a)" style="stroke-width:30" transform="matrix(1.33333 0 0 -1.33333 0 682.667)"><path d="M0 0h276.155c14.335 0 25.956 11.642 25.956 26.004v178.162c0 14.362-11.621 26.004-25.956 26.004H0" data-original="#000000" style="stroke-width:30;stroke-linecap:round;stroke-linejoin:round;stroke-miterlimit:10;stroke-dasharray:none;stroke-opacity:1" transform="translate(107.955 43.925)"/><path d="M0 0v121.299h-52.796c-14.335 0-25.956-11.643-25.956-26.005V-82.868c0-14.361 11.621-26.004 25.956-26.004H0" data-original="#000000" style="stroke-width:30;stroke-linecap:round;stroke-linejoin:round;stroke-miterlimit:10;stroke-dasharray:none;stroke-opacity:1" transform="translate(107.955 152.797)"/><path d="M0 0v0" data-original="#000000" style="stroke-width:30;stroke-linecap:round;stroke-linejoin:round;stroke-miterlimit:10;stroke-dasharray:none;stroke-opacity:1" transform="translate(107.955 107.833)"/><path d="m0 0-91.934 41.891v93.683L0 177.465Z" data-original="#000000" style="stroke-width:30;stroke-linecap:round;stroke-linejoin:round;stroke-miterlimit:10;stroke-dasharray:none;stroke-opacity:1" transform="translate(502 70.278)"/><path d="M0 0c0-53.565-43.343-96.989-96.81-96.989-53.466 0-96.809 43.424-96.809 96.989 0 53.566 43.343 96.99 96.809 96.99C-43.343 96.99 0 53.566 0 0Z" data-original="#000000" style="stroke-width:30;stroke-linecap:round;stroke-linejoin:round;stroke-miterlimit:10;stroke-dasharray:none;stroke-opacity:1" transform="translate(397.238 371.085)"/><path d="M0 0c-28.143 0-51.038 22.938-51.038 51.133 0 28.195 22.895 51.133 51.038 51.133 28.142 0 51.037-22.938 51.037-51.133C51.037 22.938 28.142 0 0 0Z" data-original="#000000" style="stroke-width:30;stroke-linecap:round;stroke-linejoin:round;stroke-miterlimit:10;stroke-dasharray:none;stroke-opacity:1" transform="translate(300.43 319.952)"/><path d="M0 0c0-53.565-43.343-96.989-96.81-96.989-53.466 0-96.809 43.424-96.809 96.989 0 53.566 43.343 96.99 96.809 96.99C-43.343 96.99 0 53.566 0 0Z" data-original="#000000" style="stroke-width:30;stroke-linecap:round;stroke-linejoin:round;stroke-miterlimit:10;stroke-dasharray:none;stroke-opacity:1" transform="translate(203.62 371.085)"/><path d="M0 0c-28.51 0-51.705 23.238-51.705 51.801 0 28.564 23.195 51.802 51.705 51.802 28.511 0 51.706-23.238 51.706-51.802C51.706 23.238 28.511 0 0 0Z" data-original="#000000" style="stroke-width:30;stroke-linecap:round;stroke-linejoin:round;stroke-miterlimit:10;stroke-dasharray:none;stroke-opacity:1" transform="translate(106.81 319.284)"/><path d="m0 0 68.467-39.154c9.551-5.461 9.551-19.251 0-24.713L0-103.02c-9.472-5.417-21.253 1.433-21.253 12.356v78.307C-21.253-1.434-9.472 5.416 0 0Z" data-original="#000000" style="stroke-width:30;stroke-linecap:round;stroke-linejoin:round;stroke-miterlimit:10;stroke-dasharray:none;stroke-opacity:1" transform="translate(223.433 210.52)"/></g></g></svg>