<svg id="Layer_1" enable-background="new 0 0 512 512" height="512" viewBox="0 0 512 512" width="512" xmlns="http://www.w3.org/2000/svg"><path d="m107.955 468.075h276.155c14.335 0 25.956-11.642 25.956-26.004v-178.162c0-14.362-11.621-26.004-25.956-26.004h-276.155" fill="#fff3da"/><path d="m107.955 359.203v-121.299h-52.796c-14.335 0-25.956 11.643-25.956 26.004v178.162c0 14.362 11.621 26.004 25.956 26.004h52.796" fill="#ffe6b4"/><path d="m502 441.722-91.934-41.891v-93.683l91.934-41.891z" fill="#ffe6b4"/><ellipse cx="300.429" cy="140.915" fill="#80b6ff" rx="96.81" ry="96.99"/><path d="m300.429 192.048c-28.143 0-51.038-22.938-51.038-51.133s22.895-51.133 51.038-51.133c28.142 0 51.037 22.938 51.037 51.133s-22.895 51.133-51.037 51.133z" fill="#faf7f5"/><ellipse cx="106.81" cy="140.915" fill="#bfdbff" rx="96.81" ry="96.99"/><path d="m106.809 192.717c-28.51 0-51.705-23.238-51.705-51.802s23.195-51.802 51.705-51.802c28.511 0 51.705 23.238 51.705 51.802.001 28.564-23.194 51.802-51.705 51.802z" fill="#faf7f5"/><path d="m223.433 301.48 68.467 39.154c9.55 5.461 9.55 19.252 0 24.713l-68.467 39.153c-9.472 5.416-21.253-1.433-21.253-12.356v-78.307c0-10.924 11.781-17.774 21.253-12.357z" fill="#ff9c9b"/><path d="m216.386 416.409c-4.172 0-8.341-1.102-12.137-3.304-7.557-4.384-12.069-12.22-12.069-20.962v-78.307c0-8.742 4.512-16.579 12.068-20.962 7.547-4.379 16.574-4.407 24.148-.076h.001l68.467 39.154c7.638 4.368 12.198 12.232 12.198 21.037s-4.56 16.67-12.198 21.037l-68.467 39.153c-3.764 2.154-7.889 3.23-12.011 3.23zm.013-106.825c-.909 0-1.652.321-2.115.589-.786.456-2.104 1.539-2.104 3.663v78.307c0 2.125 1.318 3.207 2.104 3.663.78.454 2.359 1.057 4.184.013l68.467-39.153c1.851-1.059 2.127-2.757 2.127-3.676 0-.918-.276-2.617-2.127-3.676l-68.467-39.154c-.741-.424-1.444-.576-2.069-.576z"/><path d="m300.429 202.048c-33.657 0-61.038-27.424-61.038-61.133s27.381-61.133 61.038-61.133c33.656 0 61.037 27.424 61.037 61.133s-27.381 61.133-61.037 61.133zm0-102.266c-22.628 0-41.038 18.452-41.038 41.133s18.41 41.133 41.038 41.133 41.037-18.452 41.037-41.133-18.409-41.133-41.037-41.133z"/><path d="m507.41 255.847c-2.862-1.84-6.461-2.1-9.557-.689l-77.788 35.445v-26.694c0-19.853-16.13-36.004-35.956-36.004h-21.564c27.043-19.431 44.693-51.184 44.693-86.989 0-58.994-47.915-106.99-106.81-106.99-42.785 0-79.774 25.329-96.81 61.803-17.035-36.474-54.025-61.803-96.809-61.803-58.894-.001-106.809 47.995-106.809 106.989 0 36.498 18.339 68.785 46.272 88.103-15.542 3.971-27.069 18.108-27.069 34.891v178.162c0 19.853 16.129 36.004 35.956 36.004h328.951c19.826 0 35.956-16.151 35.956-36.004v-26.694l77.788 35.445c1.322.602 2.736.9 4.146.9 1.89 0 3.772-.536 5.411-1.59 2.861-1.84 4.59-5.008 4.59-8.41v-177.465c-.001-3.402-1.73-6.569-4.591-8.41zm-206.981-201.922c47.867 0 86.81 39.023 86.81 86.99 0 47.966-38.942 86.989-86.81 86.989s-86.81-39.023-86.81-86.989 38.942-86.99 86.81-86.99zm-62.117 173.979h-69.385c14.854-10.673 26.875-25.064 34.693-41.803 7.817 16.739 19.838 31.13 34.692 41.803zm-218.312-86.989c0-47.966 38.942-86.99 86.81-86.99s86.809 39.023 86.809 86.99c0 47.966-38.942 86.989-86.809 86.989s-86.81-39.023-86.81-86.989zm380.066 301.156c0 8.825-7.158 16.004-15.956 16.004h-328.951c-8.798 0-15.956-7.179-15.956-16.004v-178.162c0-8.825 7.158-16.004 15.956-16.004h42.796v111.299c0 5.523 4.477 10 10 10s10-4.477 10-10v-111.3h266.155c8.798 0 15.956 7.18 15.956 16.004zm91.934-15.895-71.934-32.778v-80.817l71.934-32.778z"/><path d="m106.81 202.716c-34.024 0-61.705-27.724-61.705-61.801 0-34.078 27.681-61.802 61.705-61.802s61.706 27.724 61.706 61.802c-.001 34.077-27.682 61.801-61.706 61.801zm0-103.603c-22.996 0-41.705 18.752-41.705 41.802 0 23.049 18.708 41.801 41.705 41.801s41.706-18.752 41.706-41.801c-.001-23.05-18.71-41.802-41.706-41.802z"/><path d="" fill="#6eb4c7"/><path d="m107.95 414.17c-4.236 0-8.098-2.789-9.46-6.789-1.325-3.894-.058-8.335 3.124-10.943 3.279-2.688 8.015-2.995 11.619-.763 3.492 2.162 5.343 6.419 4.527 10.446-.936 4.616-5.085 8.049-9.81 8.049z"/></svg>