<?xml version="1.0" encoding="UTF-8" standalone="no"?>
<!-- Created with Inkscape (http://www.inkscape.org/) -->

<svg version="1.1" id="svg1635" xml:space="preserve" width="682.66669" height="682.66669" viewBox="0 0 682.66669 682.66669"
    xmlns="http://www.w3.org/2000/svg"><defs
     id="defs1639"><clipPath
       clipPathUnits="userSpaceOnUse"
       id="clipPath1649"><path
         d="M 0,512 H 512 V 0 H 0 Z"
         id="path1647" /></clipPath></defs><g
     id="g1641"
     transform="matrix(1.3333333,0,0,-1.3333333,0,682.66667)"><g
       id="g1643"><g
         id="g1645"
         clip-path="url(#clipPath1649)"><g
           id="g1651"
           transform="translate(107.9551,43.9253)"><path
             d="m 0,0 h 276.155 c 14.335,0 25.956,11.642 25.956,26.004 v 178.162 c 0,14.362 -11.621,26.004 -25.956,26.004 H 0"
             style="fill:none;stroke:#000000;stroke-width:20;stroke-linecap:round;stroke-linejoin:round;stroke-miterlimit:10;stroke-dasharray:none;stroke-opacity:1"
             id="path1653" /></g><g
           id="g1655"
           transform="translate(107.9551,152.7969)"><path
             d="m 0,0 v 121.299 h -52.796 c -14.335,0 -25.956,-11.643 -25.956,-26.005 V -82.868 c 0,-14.361 11.621,-26.004 25.956,-26.004 H 0"
             style="fill:none;stroke:#000000;stroke-width:20;stroke-linecap:round;stroke-linejoin:round;stroke-miterlimit:10;stroke-dasharray:none;stroke-opacity:1"
             id="path1657" /></g><g
           id="g1659"
           transform="translate(107.9551,107.833)"><path
             d="M 0,0 V 0"
             style="fill:none;stroke:#000000;stroke-width:20;stroke-linecap:round;stroke-linejoin:round;stroke-miterlimit:10;stroke-dasharray:none;stroke-opacity:1"
             id="path1661" /></g><g
           id="g1663"
           transform="translate(502,70.2778)"><path
             d="m 0,0 -91.934,41.891 v 93.683 L 0,177.465 Z"
             style="fill:none;stroke:#000000;stroke-width:20;stroke-linecap:round;stroke-linejoin:round;stroke-miterlimit:10;stroke-dasharray:none;stroke-opacity:1"
             id="path1665" /></g><g
           id="g1667"
           transform="translate(397.2383,371.085)"><path
             d="m 0,0 c 0,-53.565 -43.343,-96.989 -96.81,-96.989 -53.466,0 -96.809,43.424 -96.809,96.989 0,53.566 43.343,96.99 96.809,96.99 C -43.343,96.99 0,53.566 0,0 Z"
             style="fill:none;stroke:#000000;stroke-width:20;stroke-linecap:round;stroke-linejoin:round;stroke-miterlimit:10;stroke-dasharray:none;stroke-opacity:1"
             id="path1669" /></g><g
           id="g1671"
           transform="translate(300.4292,319.9521)"><path
             d="m 0,0 c -28.143,0 -51.038,22.938 -51.038,51.133 0,28.195 22.895,51.133 51.038,51.133 28.142,0 51.037,-22.938 51.037,-51.133 C 51.037,22.938 28.142,0 0,0 Z"
             style="fill:none;stroke:#000000;stroke-width:20;stroke-linecap:round;stroke-linejoin:round;stroke-miterlimit:10;stroke-dasharray:none;stroke-opacity:1"
             id="path1673" /></g><g
           id="g1675"
           transform="translate(203.6191,371.085)"><path
             d="m 0,0 c 0,-53.565 -43.343,-96.989 -96.81,-96.989 -53.466,0 -96.809,43.424 -96.809,96.989 0,53.566 43.343,96.99 96.809,96.99 C -43.343,96.99 0,53.566 0,0 Z"
             style="fill:none;stroke:#000000;stroke-width:20;stroke-linecap:round;stroke-linejoin:round;stroke-miterlimit:10;stroke-dasharray:none;stroke-opacity:1"
             id="path1677" /></g><g
           id="g1679"
           transform="translate(106.8096,319.2837)"><path
             d="m 0,0 c -28.51,0 -51.705,23.238 -51.705,51.801 0,28.564 23.195,51.802 51.705,51.802 28.511,0 51.706,-23.238 51.706,-51.802 C 51.706,23.238 28.511,0 0,0 Z"
             style="fill:none;stroke:#000000;stroke-width:20;stroke-linecap:round;stroke-linejoin:round;stroke-miterlimit:10;stroke-dasharray:none;stroke-opacity:1"
             id="path1681" /></g><g
           id="g1683"
           transform="translate(223.4331,210.5205)"><path
             d="m 0,0 68.467,-39.154 c 9.551,-5.461 9.551,-19.251 0,-24.713 L 0,-103.02 c -9.472,-5.417 -21.253,1.433 -21.253,12.356 v 78.307 C -21.253,-1.434 -9.472,5.416 0,0 Z"
             style="fill:none;stroke:#000000;stroke-width:20;stroke-linecap:round;stroke-linejoin:round;stroke-miterlimit:10;stroke-dasharray:none;stroke-opacity:1"
             id="path1685" /></g></g></g></g></svg>
