<svg xmlns="http://www.w3.org/2000/svg" width="512" height="512"><path d="m488.305 412.267-71.202-71.175c-10.122-10.122-23.62-15.696-38.007-15.696a55.04 55.04 0 0 0-6.364.383l-26.299-26.28c20.862-30.034 33.111-66.48 33.111-105.74C379.544 91.331 296.214 8 193.786 8 91.344 8 8 91.331 8 193.76c0 102.444 83.344 185.788 185.786 185.788 39.252 0 75.691-12.25 105.719-33.114l26.274 26.255a54.886 54.886 0 0 0-.387 6.395c0 14.396 5.577 27.891 15.703 38l71.197 71.198c10.479 10.479 24.239 15.718 38.004 15.717 13.765-.001 27.535-5.242 38.017-15.724 20.917-20.953 20.917-55.046-.008-76.008ZM193.786 310.394c-64.311 0-116.633-52.322-116.633-116.634 0-64.297 52.321-116.605 116.633-116.605 64.296 0 116.604 52.309 116.604 116.605.001 64.312-52.308 116.634-116.604 116.634Z"/></svg>