<svg id="Layer_1" enable-background="new 0 0 512 512" height="512" viewBox="0 0 512 512" width="512" xmlns="http://www.w3.org/2000/svg"><path d="m488.305 412.267-71.202-71.175c-10.122-10.122-23.62-15.696-38.007-15.696-2.145 0-4.266.139-6.364.383l-26.299-26.28c20.862-30.034 33.111-66.48 33.111-105.74 0-102.428-83.33-185.759-185.758-185.759-102.442 0-185.786 83.331-185.786 185.76 0 102.444 83.344 185.788 185.786 185.788 39.252 0 75.691-12.25 105.719-33.114l26.274 26.255c-.247 2.107-.387 4.239-.387 6.395 0 14.396 5.577 27.891 15.703 38l71.197 71.198c10.479 10.479 24.239 15.718 38.004 15.717s27.535-5.242 38.017-15.724c20.917-20.953 20.917-55.046-.008-76.008zm-456.306-218.507c0-89.195 72.577-161.761 161.787-161.761 89.194 0 161.759 72.566 161.759 161.761 0 89.211-72.565 161.79-161.759 161.79-89.21-.001-161.787-72.579-161.787-161.79zm286.488 137.715c4.53-4.107 8.866-8.446 12.988-12.995l16.682 16.67c-.065.046-.127.095-.192.141-.485.345-.965.697-1.439 1.059-.217.165-.431.335-.645.504-.397.313-.794.627-1.183.952-.319.265-.63.54-.943.813-.292.255-.587.505-.874.767-.588.536-1.167 1.086-1.732 1.649-.017.017-.036.033-.053.051-.001.001-.002.002-.003.003s-.002.002-.004.003c-.573.573-1.13 1.159-1.675 1.756-.335.366-.656.742-.979 1.116-.188.218-.38.432-.564.653-.414.494-.814.997-1.209 1.503-.066.084-.132.168-.197.253-.447.581-.881 1.17-1.302 1.767zm152.849 139.838c-5.589 5.589-13.06 8.667-21.037 8.667s-15.448-3.078-21.037-8.667l-71.211-71.212c-5.584-5.574-8.66-13.039-8.66-21.016 0-7.978 3.076-15.441 8.667-21.023 5.589-5.589 13.06-8.667 21.037-8.667s15.448 3.078 21.038 8.668l71.195 71.167c11.585 11.605 11.585 30.487.008 42.083zm-277.55-418.158c-77.544 0-140.632 63.075-140.632 140.604 0 77.545 63.087 140.633 140.632 140.633 77.529 0 140.604-63.088 140.604-140.633 0-77.529-63.074-140.604-140.604-140.604zm0 257.239c-64.311 0-116.633-52.322-116.633-116.634 0-64.297 52.321-116.605 116.633-116.605 64.296 0 116.604 52.309 116.604 116.605.001 64.312-52.308 116.634-116.604 116.634z"/></svg>