<svg xmlns="http://www.w3.org/2000/svg" version="1.1" width="512" height="512" x="0" y="0" viewBox="0 0 512 512" style="enable-background:new 0 0 512 512" xml:space="preserve" class=""><g><path d="M494.332 446.741 355.568 307.977c51.94-74.472 44.702-177.686-21.717-244.145-74.813-74.859-195.356-74.878-270.191-.042-74.599 74.6-74.599 195.549 0 270.149 66.458 66.458 169.7 73.71 244.187 21.759l138.764 138.764c13.178 13.178 34.543 13.178 47.721 0 13.178-13.178 13.178-34.544 0-47.721zM303.478 302.799c-57.625 57.625-151.053 57.625-208.678 0s-57.625-151.053 0-208.678 151.053-57.625 208.678 0c57.625 57.624 57.625 151.053 0 208.678z" style="" fill="#000000" data-original="#eda500" class=""></path><path d="m395.752 348.161-49.985 45.457 100.844 100.844c13.178 13.178 34.543 13.178 47.721 0 13.178-13.178 13.178-34.543 0-47.721l-98.58-98.58z" style="" fill="#000000" data-original="#faefca" class=""></path><path d="m410.707 363.116-55.139-55.139s-13.726 17.921-24.3 27.813-23.42 19.907-23.42 19.907l55.139 55.139 47.72-47.72z" style="" fill="#000000" data-original="#f6d36c" class=""></path><path d="M308.905 88.694c-11.965-11.964-25.646-21.816-40.663-29.282a7.674 7.674 0 0 0-10.289 3.456 7.674 7.674 0 0 0 3.456 10.289c13.527 6.724 25.855 15.603 36.641 26.391 54.54 54.54 54.54 143.284 0 197.824-26.42 26.421-61.548 40.971-98.911 40.971-37.365 0-72.492-14.55-98.912-40.971-26.421-26.42-40.971-61.548-40.971-98.912s14.55-72.492 40.971-98.912c15.939-15.939 34.827-27.48 56.137-34.303 20.339-6.511 42.287-8.288 63.466-5.139 4.198.625 8.099-2.27 8.721-6.463s-2.27-8.097-6.463-8.72c-23.493-3.493-47.839-1.522-70.405 5.703-23.328 7.468-44.876 20.632-62.312 38.068-29.319 29.319-45.466 68.301-45.466 109.766s16.147 80.447 45.466 109.766c29.32 29.32 68.302 45.467 109.767 45.467 41.463 0 80.446-16.147 109.766-45.467 60.526-60.526 60.526-159.007.001-219.532z" fill="#000000" data-original="#000000" class=""></path><path d="M499.76 441.314 365.463 307.019c23.859-36.733 34.945-80.778 31.279-124.757-3.891-46.686-24.299-90.672-57.463-123.856C301.646 20.751 251.744.008 198.765 0h-.031C145.768 0 95.867 20.728 58.232 58.363c-77.472 77.473-77.471 203.53.001 281.002 33.183 33.183 77.174 53.605 123.871 57.504 43.996 3.672 88.044-7.409 124.785-31.276l134.296 134.295c8.075 8.075 18.68 12.112 29.287 12.112s21.213-4.037 29.288-12.112c16.148-16.149 16.148-42.425 0-58.574zm-10.854 47.72c-10.166 10.165-26.704 10.164-36.868 0L313.275 350.27a7.666 7.666 0 0 0-5.429-2.248 7.654 7.654 0 0 0-4.388 1.38c-34.843 24.301-77.477 35.725-120.076 32.171-43.084-3.598-83.674-22.442-114.293-53.062C-2.4 257.024-2.401 140.53 69.087 69.042 103.825 34.304 149.865 15 198.734 15h.029c48.878 0 94.926 19.327 129.66 54.082 30.602 30.62 49.433 71.293 53.023 114.368 3.543 42.501-7.837 85.1-32.041 119.9-5.209 6.443-19.6 23.703-26.66 29.824a7.687 7.687 0 0 0 5.031 13.49 7.64 7.64 0 0 0 5.025-1.874c6.502-5.638 16.965-17.8 23.319-25.409l132.786 132.786c10.163 10.164 10.163 26.703 0 36.867z" fill="#000000" data-original="#000000" class=""></path></g></svg>
