<?xml version="1.0"?>
<svg xmlns="http://www.w3.org/2000/svg" id="Layer_1" data-name="Layer 1" viewBox="0 0 24 24" width="512" height="512"><path d="M14.76,22.65a2.3,2.3,0,0,1-2-1.23L9.28,15.06a.8.8,0,0,0-.34-.34L2.58,11.29A2.34,2.34,0,0,1,3,7L19.57,1.47h0a2.35,2.35,0,0,1,3,3L17,21.05a2.31,2.31,0,0,1-2,1.59ZM20,2.9,3.43,8.43a.84.84,0,0,0-.58.73.83.83,0,0,0,.44.81L9.65,13.4a2.29,2.29,0,0,1,.95.95L14,20.71a.83.83,0,0,0,.81.44.84.84,0,0,0,.73-.58L21.1,4A.84.84,0,0,0,20,2.9Z"/><path d="M9.67,15.08a.71.71,0,0,1-.53-.22.74.74,0,0,1,0-1.06L20.9,2A.75.75,0,0,1,22,3.1L10.2,14.86A.74.74,0,0,1,9.67,15.08Z"/></svg>
