<svg id="Capa_1" enable-background="new 0 0 512 512" height="512" viewBox="0 0 512 512" width="512" xmlns="http://www.w3.org/2000/svg"><g><g><g><g><path d="m479.073 207.484h-.082c-11.018 0-20.707-7.121-24.182-17.578-3.175-9.555-7.019-18.804-11.478-27.692-4.95-9.867-3.159-21.774 4.647-29.58l.064-.064c9.93-9.93 9.93-26.03 0-35.959l-32.652-32.653c-9.93-9.93-26.03-9.93-35.959 0l-.064.064c-7.806 7.806-19.713 9.597-29.58 4.647-8.888-4.459-18.137-8.303-27.692-11.478-10.456-3.474-17.578-13.163-17.578-24.182v-.082c0-14.043-11.384-25.427-25.427-25.427h-46.178c-14.043 0-25.427 11.384-25.427 25.427v.082c0 11.018-7.121 20.707-17.577 24.182-9.555 3.175-18.804 7.019-27.692 11.478-9.867 4.95-21.774 3.159-29.58-4.647l-.064-.064c-9.93-9.93-26.03-9.93-35.959 0l-32.655 32.652c-9.93 9.93-9.93 26.03 0 35.959l.064.064c7.806 7.806 9.597 19.713 4.647 29.58-4.459 8.888-8.303 18.137-11.478 27.692-3.474 10.456-13.163 17.577-24.182 17.577h-.082c-14.043 0-25.427 11.384-25.427 25.427v46.178c0 14.043 11.384 25.427 25.427 25.427h.082c11.018 0 20.707 7.121 24.182 17.578 3.175 9.555 7.019 18.804 11.478 27.692 4.95 9.867 3.159 21.774-4.647 29.58l-.064.064c-9.93 9.93-9.93 26.029 0 35.959l32.653 32.653c9.93 9.93 26.03 9.93 35.959 0l.064-.064c7.806-7.806 19.713-9.597 29.58-4.647 8.888 4.458 18.137 8.303 27.692 11.478 10.456 3.474 17.577 13.163 17.577 24.182v.082c0 14.043 11.384 25.427 25.427 25.427h46.178c14.043 0 25.427-11.384 25.427-25.427v-.082c0-11.018 7.121-20.707 17.578-24.182 9.555-3.175 18.804-7.019 27.692-11.478 9.867-4.95 21.774-3.159 29.58 4.647l.064.064c9.93 9.93 26.029 9.93 35.959 0l32.653-32.653c9.93-9.93 9.93-26.03 0-35.959l-.064-.064c-7.806-7.806-9.597-19.713-4.647-29.58 4.459-8.888 8.303-18.137 11.478-27.692 3.474-10.456 13.163-17.578 24.182-17.578h.082c14.043 0 25.427-11.384 25.427-25.427v-46.178c.001-14.041-11.383-25.425-25.426-25.425zm-223.073 163.23c-63.355 0-114.714-51.359-114.714-114.714s51.359-114.714 114.714-114.714 114.714 51.359 114.714 114.714-51.359 114.714-114.714 114.714z" fill="#eaf2ff"/><path d="m256 106.95c-82.318 0-149.05 66.732-149.05 149.05s66.732 149.05 149.05 149.05 149.05-66.732 149.05-149.05-66.732-149.05-149.05-149.05zm0 249.959c-55.731 0-100.909-45.179-100.909-100.909s45.178-100.909 100.909-100.909 100.909 45.178 100.909 100.909-45.178 100.909-100.909 100.909z" fill="#60a0f7"/></g><g fill="#c9e0fd"><path d="m304.359 30.125c-1.395-12.724-12.174-22.625-25.27-22.625h-46.178c-2.91 0-5.703.495-8.306 1.395 28.221 2.621 55.073 9.958 79.754 21.23z"/><path d="m479.073 207.484h-.082c-11.018 0-20.707-7.121-24.182-17.578-3.175-9.555-7.019-18.804-11.478-27.692-4.95-9.867-3.159-21.774 4.647-29.58l.064-.064c9.93-9.93 9.93-26.03 0-35.959l-32.652-32.653c-9.93-9.93-26.03-9.93-35.959 0l-.064.064c-3.571 3.571-8.004 5.867-12.703 6.851 50.869 45.451 82.902 111.544 82.902 185.127 0 73.584-32.033 139.677-82.902 185.127 4.7.984 9.132 3.28 12.703 6.851l.064.064c9.93 9.93 26.029 9.93 35.959 0l32.653-32.653c9.93-9.93 9.93-26.03 0-35.959l-.064-.064c-7.806-7.806-9.597-19.713-4.647-29.58 4.459-8.888 8.303-18.137 11.478-27.692 3.474-10.456 13.163-17.578 24.182-17.578h.082c14.043 0 25.427-11.384 25.427-25.427v-46.178c-.001-14.043-11.385-25.427-25.428-25.427z"/><path d="m224.605 503.105c2.604.9 5.397 1.395 8.306 1.395h46.178c13.096 0 23.875-9.901 25.27-22.625-24.681 11.272-51.533 18.609-79.754 21.23z"/></g></g></g><g><g><path d="m479.073 199.984h-.082c-7.734 0-14.592-5-17.064-12.443-3.259-9.803-7.26-19.456-11.892-28.688-3.53-7.038-2.225-15.443 3.227-20.895.007-.006.078-.077.085-.084 12.838-12.838 12.838-33.728 0-46.566l-32.653-32.653c-12.839-12.838-33.727-12.839-46.546-.02-.007.006-.078.077-.085.084-5.471 5.472-13.875 6.778-20.914 3.247-9.242-4.636-18.896-8.637-28.689-11.891-7.442-2.473-12.442-9.331-12.442-17.146-.001-18.158-14.773-32.929-32.929-32.929h-46.178c-18.156 0-32.927 14.771-32.927 33.009 0 7.733-5 14.591-12.442 17.064-9.797 3.255-19.45 7.256-28.69 11.891-7.038 3.531-15.442 2.225-20.979-3.311-12.838-12.838-33.728-12.838-46.566 0l-32.653 32.654c-12.838 12.838-12.838 33.728.064 46.63 5.472 5.472 6.777 13.877 3.246 20.915-4.635 9.24-8.635 18.893-11.891 28.689-2.473 7.442-9.331 12.443-17.146 12.443-18.156 0-32.927 14.771-32.927 32.927v46.178c0 18.156 14.771 32.927 33.009 32.927 7.733 0 14.591 5 17.064 12.442 3.255 9.798 7.256 19.451 11.891 28.69 3.53 7.038 2.226 15.442-3.311 20.979-12.838 12.839-12.838 33.728 0 46.566l32.653 32.653c12.838 12.838 33.728 12.839 46.63-.064 5.472-5.472 13.875-6.777 20.915-3.247 9.238 4.635 18.891 8.635 28.689 11.891 7.442 2.473 12.443 9.331 12.443 17.146 0 18.156 14.771 32.927 32.927 32.927h46.178c18.156 0 32.928-14.771 32.928-33.009 0-7.733 5-14.591 12.442-17.064 9.796-3.255 19.449-7.256 28.69-11.891 7.037-3.528 15.442-2.225 20.978 3.311 12.839 12.838 33.728 12.839 46.566 0l32.653-32.653c12.838-12.838 12.838-33.727-.064-46.63-5.472-5.472-6.777-13.877-3.247-20.914 4.633-9.236 8.634-18.888 11.892-28.691 2.473-7.442 9.33-12.442 17.146-12.442 18.156 0 32.927-14.771 32.927-32.927v-46.178c.001-18.156-14.77-32.927-32.926-32.927zm17.927 79.105c0 9.885-8.042 17.927-18.009 17.927-14.208 0-26.786 9.128-31.299 22.712-3.031 9.12-6.754 18.102-11.065 26.695-6.433 12.825-4.002 28.195 6.112 38.31 6.99 6.99 6.99 18.363 0 25.353l-32.653 32.653c-6.989 6.989-18.364 6.989-25.416-.064-10.051-10.051-25.424-12.479-38.246-6.048-8.599 4.313-17.58 8.036-26.695 11.064-13.585 4.514-22.712 17.092-22.712 31.381 0 9.885-8.042 17.927-17.928 17.927h-46.178c-9.885 0-17.927-8.042-17.927-18.009 0-14.207-9.127-26.785-22.713-31.299-9.116-3.029-18.098-6.752-26.694-11.064-12.858-6.449-28.221-3.977-38.311 6.112-6.99 6.99-18.363 6.989-25.353 0l-32.653-32.653c-6.99-6.99-6.989-18.363.064-25.417 10.051-10.051 12.481-25.421 6.047-38.247-4.312-8.597-8.035-17.578-11.064-26.694-4.514-13.585-17.092-22.712-31.381-22.712-9.885 0-17.927-8.042-17.927-17.927v-46.178c0-9.885 8.042-17.927 18.009-17.927 14.207 0 26.785-9.127 31.299-22.713 3.029-9.115 6.751-18.096 11.064-26.694 6.434-12.825 4.004-28.195-6.111-38.311-6.99-6.99-6.989-18.363 0-25.353l32.653-32.653c6.99-6.991 18.363-6.99 25.417.064 10.051 10.05 25.422 12.482 38.247 6.048 8.598-4.313 17.58-8.036 26.694-11.064 13.585-4.514 22.712-17.092 22.712-31.381 0-9.885 8.042-17.927 17.927-17.927h46.178c9.886 0 17.928 8.042 17.928 18.009 0 14.207 9.127 26.785 22.712 31.299 9.113 3.028 18.095 6.751 26.694 11.064 12.825 6.434 28.197 4.004 38.227-6.028.007-.006.078-.077.085-.084 6.988-6.989 18.363-6.989 25.352 0l32.653 32.653c6.99 6.99 6.99 18.363.021 25.333-.007.006-.078.077-.085.084-10.05 10.051-12.48 25.421-6.048 38.247 4.311 8.591 8.033 17.573 11.065 26.693 4.513 13.585 17.091 22.713 31.299 22.713h.082c9.885 0 17.927 8.042 17.927 17.927z"/><path d="m345.438 365.72c-25.148 20.526-56.911 31.83-89.438 31.83-78.051 0-141.55-63.499-141.55-141.55 0-32.413 11.233-64.089 31.631-89.194 2.612-3.215 2.124-7.938-1.091-10.55-3.215-2.613-7.938-2.124-10.55 1.091-22.564 27.771-34.99 62.806-34.99 98.653 0 86.322 70.228 156.55 156.55 156.55 35.973 0 71.104-12.504 98.922-35.208 3.209-2.619 3.688-7.344 1.068-10.553-2.618-3.21-7.343-3.689-10.552-1.069z"/><path d="m256 147.591c-59.777 0-108.41 48.632-108.41 108.409s48.632 108.41 108.41 108.41 108.409-48.633 108.409-108.41-48.632-108.409-108.409-108.409zm0 201.819c-51.506 0-93.41-41.903-93.41-93.41 0-51.506 41.903-93.409 93.41-93.409 51.506 0 93.409 41.903 93.409 93.409s-41.903 93.41-93.409 93.41z"/><path d="m256 99.45c-34.614 0-67.42 11.069-94.871 32.012-3.293 2.512-3.926 7.219-1.414 10.512 2.513 3.294 7.219 3.925 10.512 1.414 24.815-18.931 54.475-28.938 85.773-28.938 78.051 0 141.55 63.499 141.55 141.55 0 31.298-10.007 60.958-28.938 85.774-2.513 3.293-1.879 8 1.414 10.512 3.285 2.507 7.994 1.887 10.512-1.414 20.942-27.452 32.012-60.258 32.012-94.872 0-86.322-70.228-156.55-156.55-156.55z"/></g></g></g></svg>