<svg height="512" viewBox="0 0 48 48" width="512" xmlns="http://www.w3.org/2000/svg"><g id="Outline_Flaticon" data-name="Outline Flaticon"><path d="m14.1924 44.0137a4.029 4.029 0 0 1 -3.96-4.6778l1.5469-9.5312-6.6387-6.8555a4.0283 4.0283 0 0 1 2.27-6.7871l8.9912-1.38 3.9619-8.4638a4.0445 4.0445 0 0 1 7.2734 0l3.9488 8.4517 9.0041 1.3921a4.0283 4.0283 0 0 1 2.27 6.7871l-6.6319 6.8281 1.5411 9.56a4.0177 4.0177 0 0 1 -5.9112 4.167l-7.8525-4.36-7.8623 4.36a4.0089 4.0089 0 0 1 -1.9508.5094zm9.8076-8.8737a4 4 0 0 1 1.9453.5069l7.8535 4.3613-1.5273-9.5625a4.0551 4.0551 0 0 1 1.0859-3.4541l6.6326-6.8295-8.999-1.4267a4.0117 4.0117 0 0 1 -3.03-2.2745l-3.9473-8.4492h-.001a.0649.0649 0 0 0 -.0107-.0195l-3.9649 8.4707a4.0074 4.0074 0 0 1 -3.0271 2.2725l-8.9922 1.38 6.624 6.875a4.0546 4.0546 0 0 1 1.0869 3.4541l-1.5478 9.5332 7.873-4.33a3.9991 3.9991 0 0 1 1.9461-.5077z"/></g></svg>