<?xml version="1.0" encoding="UTF-8"?>
<!-- Generated by Pixelmator Pro 3.3.6 -->
<svg width="512" height="512" viewBox="0 0 512 512" xmlns="http://www.w3.org/2000/svg">
    <g id="OutlineFlaticon">
        <path id="Path" fill="#000000" stroke="none" d="M 151.385605 469.479462 C 138.808945 469.428223 126.885895 463.870483 118.759819 454.271454 C 110.633736 444.672394 107.120232 431.995514 109.145599 419.582916 L 125.645866 317.916809 L 54.833069 244.791473 C 43.638966 233.267059 39.80917 216.460449 44.905136 201.223969 C 50.00111 185.987457 63.171436 174.866669 79.046402 172.395721 L 174.95253 157.67572 L 217.212814 67.395203 C 224.436417 52.552094 239.49675 43.132324 256.004272 43.132324 C 272.51181 43.132324 287.572113 52.552094 294.795746 67.395203 L 336.91626 157.546661 L 432.959991 172.395721 C 448.834961 174.866669 462.00528 185.987457 467.101288 201.223969 C 472.197235 216.460449 468.367432 233.267059 457.17334 244.791473 L 386.433075 317.624512 L 402.87146 419.59787 C 405.539703 435.809174 398.705078 452.118988 385.276764 461.585052 C 371.84848 471.051117 354.190399 472.006989 339.818665 464.045868 L 256.058685 417.539185 L 172.194138 464.045868 C 165.834122 467.600189 158.671402 469.470551 151.385605 469.479462 Z M 256.135468 85.45813 C 256.10968 85.382751 256.071075 85.312378 256.021332 85.250122 Z"/>
    </g>
</svg>
